<svg width="53" height="143" viewBox="0 0 53 143" fill="none" xmlns="http://www.w3.org/2000/svg">
<g filter="url(#filter0_i_2002_441)">
<path d="M7.34996 10.3197C7.34996 10.3197 4.984 -2.75127 12.282 0.52784C19.5827 3.82614 16.0733 13.0072 16.0733 13.0072L28.2985 34.3392C28.2985 34.3392 37.4672 28.7654 39.5789 36.9607C41.6906 45.1561 29.2017 46.4808 29.2017 46.4808C29.2017 46.4808 23.4406 57.622 17.941 52.6421C12.4414 47.6623 19.2963 40.2613 19.2963 40.2613L8.47723 20.571C8.47723 20.571 1.27981 23.3045 0.110812 16.6594C-1.05548 10.0335 7.36917 10.317 7.36917 10.317L7.34996 10.3197Z" fill="#F5F3EF"/>
<path d="M36.1538 63.3295C36.1538 63.3295 28.6889 55.3777 24.4527 62.1759C20.2166 68.974 30.2062 72.1683 30.2062 72.1683L30.8036 94.9584C30.8036 94.9584 20.0945 95.4264 22.9036 103.426C25.7126 111.425 36.8382 105.557 36.8382 105.557C36.8382 105.557 47.8359 111.604 49.6231 104.386C51.4129 97.1885 41.605 94.8688 41.605 94.8688L40.9655 72.476C40.9655 72.476 50.3176 68.207 47.5919 62.0546C44.8469 55.905 36.1757 63.346 36.1757 63.346L36.1538 63.3295Z" fill="#F5F3EF"/>
<path d="M31.62 49.3304C30.0218 51.0617 31.4155 54.4271 33.3481 56.1904C35.2808 57.9538 40.094 58.6079 40.8803 56.8146C41.8216 54.4517 40.8539 51.8874 38.6662 50.1208C36.4784 48.3541 32.6712 48.0282 31.6392 49.3277L31.62 49.3304Z" fill="#F5F3EF"/>
<path d="M37.9519 124.772C39.2397 124.317 40.5983 124.087 41.9215 123.745C43.2831 123.397 44.6643 122.909 44.9123 121.328C45.0101 120.63 44.8938 119.942 44.7391 119.259C44.3565 117.513 43.801 115.79 42.9324 114.21C41.4575 111.522 38.991 109.305 35.7699 109.386C32.0001 109.466 30.3355 112.537 29.6855 115.857C29.2521 118.07 28.9501 120.382 29.09 122.632C29.1898 124.458 30.1248 125.813 32.0392 126.053C34.0332 126.301 35.8868 125.551 37.6937 124.887C37.7871 124.854 37.8612 124.824 37.9546 124.791L37.9519 124.772Z" fill="#F5F3EF"/>
<path d="M38.6111 126.675C38.1885 126.735 37.7274 126.799 37.4605 127.13C37.2458 127.415 37.264 127.823 37.296 128.191C37.4174 129.054 37.6321 129.885 37.9786 130.678C38.1205 130.99 38.2843 131.319 38.5691 131.534C39.0703 131.894 39.773 131.736 40.3797 131.592C40.4949 131.576 40.624 131.519 40.712 131.448C40.8 131.377 40.8222 131.256 40.8664 131.152C41.0187 130.563 40.9927 129.96 40.9476 129.36C40.9078 128.798 40.8296 128.242 40.5812 127.729C40.1608 126.829 39.5056 126.628 38.5973 126.716L38.6111 126.675Z" fill="#F5F3EF"/>
<path d="M39.96 132.649C39.5374 132.709 39.0763 132.773 38.8094 133.105C38.5947 133.389 38.6129 133.797 38.6449 134.165C38.7663 135.028 38.981 135.859 39.3275 136.652C39.4694 136.964 39.6332 137.294 39.918 137.508C40.4192 137.868 41.1219 137.71 41.7286 137.566C41.8438 137.55 41.9729 137.493 42.0609 137.422C42.1489 137.351 42.1711 137.23 42.2152 137.126C42.3676 136.537 42.3416 135.935 42.2964 135.334C42.2567 134.772 42.1785 134.216 41.93 133.703C41.5097 132.803 40.8545 132.602 39.9462 132.69L39.96 132.649Z" fill="#F5F3EF"/>
<path d="M41.1055 138.848C40.812 138.85 40.4827 138.876 40.2983 139.098C40.1278 139.279 40.1106 139.574 40.1264 139.827C40.1524 140.43 40.2552 141.022 40.4514 141.581C40.5221 141.806 40.6149 142.047 40.812 142.196C41.146 142.481 41.6263 142.414 42.0463 142.335C42.1231 142.325 42.2192 142.311 42.2879 142.243C42.3402 142.196 42.387 142.111 42.3981 142.051C42.539 141.66 42.5592 141.246 42.5575 140.816C42.5612 140.424 42.5457 140.035 42.3957 139.664C42.1503 139.033 41.7311 138.838 41.1055 138.848Z" fill="#F5F3EF"/>
<path d="M33.8293 127.778C33.437 127.774 33.0063 127.776 32.734 128.069C32.4947 128.318 32.4691 128.693 32.4765 129.025C32.491 129.825 32.6208 130.609 32.8439 131.36C32.9447 131.659 33.0482 131.977 33.2946 132.197C33.7216 132.587 34.3775 132.514 34.9538 132.433C35.0691 132.417 35.1843 132.401 35.2723 132.33C35.3603 132.259 35.4071 132.174 35.4321 132.073C35.6336 131.555 35.6734 131.002 35.6912 130.432C35.7171 129.919 35.702 129.393 35.5358 128.908C35.2388 128.049 34.6716 127.777 33.8293 127.778Z" fill="#F5F3EF"/>
<path d="M34.4577 133.364C34.0654 133.36 33.6347 133.362 33.3623 133.655C33.123 133.904 33.0974 134.279 33.1048 134.611C33.1194 135.411 33.2491 136.195 33.4723 136.946C33.5731 137.245 33.6765 137.563 33.9229 137.783C34.3499 138.173 35.0058 138.1 35.5822 138.019C35.6974 138.003 35.8127 137.987 35.9007 137.916C35.9886 137.845 36.0355 137.76 36.0604 137.659C36.2619 137.141 36.3017 136.588 36.3196 136.018C36.3455 135.505 36.3303 134.979 36.1642 134.494C35.8672 133.635 35.3 133.363 34.4577 133.364Z" fill="#F5F3EF"/>
<path d="M34.8771 139.136C34.6 139.116 34.3038 139.099 34.1113 139.263C33.9381 139.424 33.8936 139.666 33.8876 139.901C33.8478 140.455 33.8849 140.997 33.9988 141.529C34.0285 141.74 34.0993 141.965 34.2607 142.138C34.5371 142.432 34.987 142.427 35.374 142.393C35.4508 142.382 35.5276 142.371 35.6018 142.341C35.654 142.295 35.7036 142.229 35.7339 142.166C35.9021 141.829 35.9661 141.448 36.0082 141.051C36.0558 140.692 36.0841 140.336 35.9971 139.996C35.8532 139.39 35.4696 139.17 34.8936 139.114L34.8771 139.136Z" fill="#F5F3EF"/>
<path d="M43.322 125.485C42.957 125.536 42.5616 125.65 42.3523 125.973C42.1953 126.25 42.2246 126.598 42.3062 126.9C42.469 127.64 42.7443 128.345 43.0912 129C43.2469 129.272 43.4026 129.544 43.6766 129.681C44.1451 129.948 44.7464 129.766 45.2489 129.578C45.3423 129.545 45.4549 129.509 45.5209 129.422C45.5897 129.354 45.6146 129.252 45.6203 129.154C45.7039 128.633 45.6311 128.115 45.5583 127.597C45.4909 127.117 45.3631 126.626 45.109 126.212C44.6718 125.471 44.085 125.339 43.3028 125.488L43.322 125.485Z" fill="#F5F3EF"/>
<path d="M44.9722 130.536C44.6072 130.587 44.2118 130.702 44.0025 131.025C43.8455 131.301 43.8748 131.649 43.9564 131.951C44.1192 132.691 44.3946 133.396 44.7414 134.052C44.8971 134.323 45.0528 134.595 45.3268 134.732C45.7953 134.999 46.3966 134.817 46.8991 134.629C46.9925 134.596 47.1051 134.561 47.1711 134.473C47.2399 134.405 47.2648 134.303 47.2705 134.205C47.3541 133.684 47.2813 133.166 47.2085 132.648C47.1411 132.168 47.0133 131.678 46.7592 131.263C46.322 130.523 45.7352 130.39 44.953 130.539L44.9722 130.536Z" fill="#F5F3EF"/>
<path d="M46.4766 135.803C46.2268 135.839 45.9386 135.879 45.79 136.076C45.6579 136.251 45.6737 136.503 45.7034 136.714C45.7762 137.232 45.9232 137.721 46.1278 138.201C46.2124 138.384 46.3189 138.585 46.4941 138.717C46.7981 138.928 47.2181 138.85 47.575 138.741C47.6519 138.73 47.726 138.7 47.7783 138.653C47.8305 138.607 47.8416 138.547 47.8693 138.465C47.9579 138.119 47.9451 137.749 47.913 137.382C47.8672 137.056 47.8187 136.711 47.696 136.395C47.4449 135.863 47.0556 135.742 46.4931 135.782L46.4766 135.803Z" fill="#F5F3EF"/>
<path d="M46.6273 122.379C46.3499 122.496 46.056 122.635 45.9593 122.923C45.8764 123.169 45.9718 123.43 46.0617 123.652C46.3156 124.203 46.66 124.703 47.0567 125.156C47.2209 125.348 47.4015 125.518 47.629 125.604C48.0402 125.741 48.4743 125.485 48.8343 125.258C48.9057 125.209 48.9772 125.16 49.0267 125.094C49.0571 125.031 49.0628 124.932 49.052 124.856C49.0311 124.428 48.8784 124.039 48.7257 123.649C48.5784 123.298 48.4092 122.931 48.1328 122.637C47.6512 122.137 47.1793 122.125 46.6081 122.381L46.6273 122.379Z" fill="#F5F3EF"/>
<path d="M48.8076 126.044C48.5303 126.162 48.2363 126.301 48.1396 126.588C48.0567 126.835 48.1521 127.095 48.2421 127.318C48.4959 127.869 48.8404 128.368 49.2179 128.824C49.382 129.016 49.5627 129.187 49.7902 129.272C50.2014 129.41 50.6355 129.153 50.9954 128.926C51.0669 128.877 51.1383 128.828 51.1879 128.762C51.2182 128.699 51.2239 128.601 51.2131 128.524C51.1922 128.097 51.0395 127.707 50.8869 127.318C50.7396 126.967 50.5704 126.599 50.294 126.305C49.8123 125.805 49.3405 125.793 48.7692 126.05L48.8076 126.044Z" fill="#F5F3EF"/>
<path d="M50.8997 129.918C50.713 129.984 50.4906 130.074 50.4188 130.26C50.3443 130.427 50.3905 130.616 50.4505 130.764C50.6032 131.154 50.7916 131.518 51.0349 131.856C51.1333 131.999 51.2483 132.119 51.3962 132.197C51.6676 132.315 51.9807 132.173 52.2554 132.037C52.3103 132.009 52.3652 131.982 52.3982 131.938C52.4313 131.895 52.4232 131.837 52.4343 131.777C52.4515 131.481 52.3534 131.201 52.2745 130.919C52.1984 130.655 52.103 130.395 51.9361 130.184C51.649 129.813 51.3116 129.782 50.8997 129.918Z" fill="#F5F3EF"/>
<path d="M26.3397 126.619C26.1678 127.348 26.1139 128.079 26.1806 128.833C26.2238 129.14 26.2669 129.447 26.4803 129.711C26.8578 130.166 27.5955 130.258 28.2511 130.323C28.3718 130.345 28.5089 130.345 28.6215 130.31C28.7341 130.274 28.8001 130.187 28.8689 130.119C29.2211 129.697 29.4061 129.202 29.5527 128.711C29.702 128.24 29.8129 127.775 29.7455 127.295C29.6268 126.451 29.0626 126.061 28.133 125.859C27.708 125.762 27.2035 125.657 26.8408 125.864C26.5304 126.025 26.4007 126.356 26.3258 126.66L26.3397 126.619Z" fill="#F5F3EF"/>
<path d="M25.9049 131.611C25.7364 132.085 25.6336 132.608 25.6461 133.115C25.6374 133.332 25.667 133.543 25.79 133.721C26.0307 134.04 26.516 134.147 26.9768 134.22C27.0563 134.228 27.1578 134.253 27.2319 134.223C27.3088 134.212 27.3583 134.146 27.4105 134.1C27.6856 133.827 27.8537 133.49 27.9835 133.158C28.1159 132.846 28.2292 132.537 28.219 132.186C28.1958 131.602 27.8234 131.322 27.2066 131.115C26.9187 131.019 26.5733 130.93 26.3151 131.045C26.0926 131.135 25.9878 131.365 25.8995 131.573L25.9049 131.611Z" fill="#F5F3EF"/>
</g>
<defs>
<filter id="filter0_i_2002_441" x="0" y="0" width="52.4363" height="142.409" filterUnits="userSpaceOnUse" color-interpolation-filters="sRGB">
<feFlood flood-opacity="0" result="BackgroundImageFix"/>
<feBlend mode="normal" in="SourceGraphic" in2="BackgroundImageFix" result="shape"/>
<feColorMatrix in="SourceAlpha" type="matrix" values="0 0 0 0 0 0 0 0 0 0 0 0 0 0 0 0 0 0 127 0" result="hardAlpha"/>
<feOffset dy="-2"/>
<feComposite in2="hardAlpha" operator="arithmetic" k2="-1" k3="1"/>
<feColorMatrix type="matrix" values="0 0 0 0 0.904482 0 0 0 0 0.834809 0 0 0 0 0.695462 0 0 0 1 0"/>
<feBlend mode="normal" in2="shape" result="effect1_innerShadow_2002_441"/>
</filter>
</defs>
</svg>
