<svg width="53" height="143" viewBox="0 0 53 143" fill="none" xmlns="http://www.w3.org/2000/svg">
<g filter="url(#filter0_i_2002_438)">
<path d="M45.0671 10.3197C45.0671 10.3197 47.433 -2.75127 40.1351 0.527841C32.8344 3.82614 36.3438 13.0072 36.3438 13.0072L24.1186 34.3392C24.1186 34.3392 14.9499 28.7654 12.8381 36.9607C10.7264 45.1561 23.2154 46.4808 23.2154 46.4808C23.2154 46.4808 28.9765 57.622 34.4761 52.6421C39.9757 47.6623 33.1208 40.2613 33.1208 40.2613L43.9398 20.571C43.9398 20.571 51.1372 23.3045 52.3062 16.6594C53.4752 10.0143 45.0479 10.317 45.0479 10.317L45.0671 10.3197Z" fill="#F5F3EF"/>
<path d="M16.2632 63.3295C16.2632 63.3295 23.7282 55.3777 27.9643 62.1759C32.2004 68.974 22.2108 72.1683 22.2108 72.1683L21.6134 94.9584C21.6134 94.9584 32.3225 95.4264 29.5135 103.426C26.7044 111.425 15.5788 105.557 15.5788 105.557C15.5788 105.557 4.58111 111.604 2.79394 104.386C1.00408 97.1885 10.812 94.8688 10.812 94.8688L11.4515 72.4759C11.4515 72.4759 2.09939 68.207 4.82516 62.0546C7.57014 55.905 16.2413 63.346 16.2413 63.346L16.2632 63.3295Z" fill="#F5F3EF"/>
<path d="M20.7971 49.3304C22.3953 51.0617 21.0015 54.427 19.0689 56.1904C17.1363 57.9538 12.323 58.6079 11.5367 56.8146C10.5954 54.4517 11.5631 51.8874 13.7509 50.1208C15.9387 48.3541 19.7459 48.0282 20.7779 49.3277L20.7971 49.3304Z" fill="#F5F3EF"/>
<path d="M14.4843 124.775C13.1965 124.32 11.8379 124.09 10.5147 123.747C9.15306 123.399 7.77188 122.912 7.52385 121.331C7.42613 120.632 7.54242 119.944 7.69714 119.262C8.07971 117.515 8.63519 115.793 9.50377 114.213C10.9787 111.524 13.4452 109.308 16.6663 109.389C20.4361 109.468 22.1007 112.539 22.7507 115.859C23.1841 118.073 23.4861 120.385 23.3461 122.635C23.2463 124.46 22.3114 125.816 20.397 126.056C18.403 126.304 16.5493 125.554 14.7425 124.889C14.6491 124.857 14.575 124.827 14.4816 124.794L14.4843 124.775Z" fill="#F5F3EF"/>
<path d="M13.8251 126.678C14.2477 126.737 14.7088 126.802 14.9757 127.133C15.1904 127.418 15.1722 127.826 15.1402 128.193C15.0188 129.057 14.8041 129.888 14.4576 130.68C14.3157 130.993 14.1519 131.322 13.8671 131.537C13.3659 131.897 12.6632 131.739 12.0565 131.595C11.9412 131.579 11.8122 131.522 11.7242 131.451C11.6362 131.38 11.614 131.259 11.5698 131.155C11.4175 130.566 11.4435 129.963 11.4886 129.363C11.5284 128.801 11.6066 128.245 11.855 127.732C12.2753 126.832 12.9306 126.631 13.8389 126.719L13.8251 126.678Z" fill="#F5F3EF"/>
<path d="M12.4569 132.649C12.8795 132.709 13.3406 132.774 13.6075 133.105C13.8222 133.389 13.804 133.797 13.772 134.165C13.6506 135.028 13.4359 135.859 13.0894 136.652C12.9475 136.964 12.7837 137.294 12.4989 137.508C11.9977 137.868 11.295 137.71 10.6883 137.566C10.5731 137.55 10.444 137.493 10.356 137.422C10.2681 137.351 10.2458 137.23 10.2017 137.126C10.0493 136.537 10.0753 135.935 10.1205 135.334C10.1603 134.772 10.2385 134.216 10.4869 133.703C10.9072 132.803 11.5624 132.602 12.4707 132.69L12.4569 132.649Z" fill="#F5F3EF"/>
<path d="M11.3115 138.848C11.6051 138.85 11.9344 138.876 12.1187 139.098C12.2893 139.279 12.3065 139.575 12.2906 139.827C12.2646 140.43 12.1618 141.022 11.9657 141.581C11.8949 141.806 11.8022 142.047 11.605 142.196C11.271 142.481 10.7907 142.414 10.3708 142.335C10.2939 142.325 10.1979 142.311 10.1291 142.243C10.0769 142.196 10.03 142.111 10.0189 142.051C9.87805 141.66 9.85783 141.246 9.85953 140.816C9.85583 140.424 9.87134 140.035 10.0213 139.664C10.2667 139.033 10.686 138.838 11.3115 138.848Z" fill="#F5F3EF"/>
<path d="M18.5877 127.778C18.98 127.774 19.4108 127.776 19.6831 128.069C19.9224 128.318 19.948 128.693 19.9406 129.025C19.9261 129.825 19.7963 130.609 19.5731 131.36C19.4724 131.659 19.3689 131.977 19.1225 132.197C18.6955 132.587 18.0396 132.514 17.4633 132.433C17.348 132.417 17.2327 132.401 17.1448 132.33C17.0568 132.259 17.0099 132.174 16.985 132.073C16.7835 131.555 16.7437 131.002 16.7259 130.432C16.6999 129.919 16.7151 129.393 16.8813 128.908C17.1782 128.049 17.7455 127.777 18.5877 127.778Z" fill="#F5F3EF"/>
<path d="M17.9593 133.364C18.3516 133.36 18.7824 133.362 19.0547 133.655C19.294 133.904 19.3196 134.279 19.3122 134.611C19.2977 135.411 19.1679 136.195 18.9448 136.946C18.844 137.245 18.7405 137.563 18.4941 137.783C18.0671 138.173 17.4112 138.1 16.8349 138.019C16.7196 138.003 16.6043 137.987 16.5164 137.916C16.4284 137.845 16.3815 137.76 16.3566 137.659C16.1551 137.141 16.1153 136.588 16.0975 136.018C16.0715 135.505 16.0867 134.979 16.2529 134.494C16.5498 133.636 17.1171 133.363 17.9593 133.364Z" fill="#F5F3EF"/>
<path d="M17.54 139.136C17.817 139.116 18.1133 139.099 18.3057 139.263C18.4789 139.425 18.5234 139.666 18.5295 139.901C18.5693 140.455 18.5322 140.997 18.4182 141.529C18.3886 141.74 18.3178 141.965 18.1563 142.138C17.88 142.432 17.43 142.427 17.0431 142.393C16.9663 142.382 16.8894 142.371 16.8153 142.341C16.763 142.295 16.7135 142.229 16.6831 142.166C16.515 141.829 16.4509 141.448 16.4088 141.051C16.3613 140.692 16.333 140.336 16.42 139.996C16.5639 139.39 16.9474 139.17 17.5234 139.114L17.54 139.136Z" fill="#F5F3EF"/>
<path d="M9.11423 125.488C9.47924 125.539 9.87459 125.653 10.0839 125.976C10.2409 126.253 10.2116 126.601 10.13 126.902C9.96723 127.642 9.69185 128.347 9.34503 129.003C9.18931 129.275 9.03359 129.546 8.75957 129.684C8.29108 129.951 7.68981 129.768 7.18729 129.58C7.09393 129.548 6.98136 129.512 6.9153 129.425C6.84655 129.356 6.82161 129.255 6.81588 129.156C6.7323 128.636 6.80512 128.118 6.87793 127.6C6.94535 127.12 7.07309 126.629 7.32723 126.215C7.76439 125.474 8.35118 125.341 9.13344 125.49L9.11423 125.488Z" fill="#F5F3EF"/>
<path d="M7.44484 130.536C7.80985 130.587 8.20519 130.702 8.41449 131.025C8.57154 131.301 8.54221 131.649 8.46064 131.951C8.29784 132.691 8.02246 133.396 7.67563 134.051C7.51991 134.323 7.36419 134.595 7.09018 134.732C6.62169 134.999 6.02041 134.817 5.51789 134.629C5.42453 134.596 5.31196 134.561 5.2459 134.473C5.17715 134.405 5.15221 134.303 5.14648 134.205C5.06291 133.684 5.13572 133.166 5.20853 132.648C5.27595 132.168 5.4037 131.678 5.65784 131.263C6.09499 130.522 6.68178 130.39 7.46404 130.539L7.44484 130.536Z" fill="#F5F3EF"/>
<path d="M5.95969 135.806C6.20944 135.841 6.4976 135.882 6.64623 136.079C6.77835 136.254 6.7625 136.506 6.73284 136.717C6.66003 137.235 6.51307 137.723 6.30848 138.203C6.22388 138.387 6.11737 138.587 5.9421 138.719C5.63809 138.931 5.21814 138.852 4.86121 138.743C4.78437 138.733 4.71022 138.703 4.65798 138.656C4.60574 138.61 4.59462 138.549 4.56699 138.467C4.47835 138.122 4.49117 137.752 4.52319 137.385C4.56904 137.059 4.61758 136.713 4.74027 136.398C4.99137 135.866 5.38066 135.744 5.94318 135.784L5.95969 135.806Z" fill="#F5F3EF"/>
<path d="M5.78978 122.379C6.06716 122.496 6.36106 122.635 6.45778 122.923C6.54069 123.169 6.4453 123.43 6.3553 123.652C6.1015 124.203 5.75704 124.703 5.37954 125.158C5.2154 125.351 5.03474 125.521 4.80724 125.606C4.39605 125.744 3.96195 125.487 3.602 125.261C3.53054 125.212 3.45909 125.162 3.40955 125.097C3.37922 125.034 3.37349 124.935 3.38427 124.858C3.40518 124.431 3.55787 124.041 3.71055 123.652C3.85785 123.301 4.02705 122.933 4.30343 122.64C4.78507 122.14 5.25692 122.128 5.8282 122.384L5.78978 122.379Z" fill="#F5F3EF"/>
<path d="M3.60944 126.045C3.88682 126.162 4.18071 126.301 4.27743 126.588C4.36034 126.835 4.26495 127.095 4.17496 127.318C3.92116 127.869 3.57669 128.368 3.17999 128.821C3.01585 129.014 2.83519 129.184 2.60768 129.269C2.19649 129.407 1.76239 129.15 1.40244 128.924C1.33099 128.875 1.25954 128.825 1.20999 128.76C1.17966 128.697 1.17393 128.598 1.18472 128.521C1.20563 128.094 1.35831 127.704 1.511 127.315C1.65829 126.964 1.8275 126.596 2.10388 126.303C2.58552 125.803 3.05737 125.791 3.62865 126.047L3.60944 126.045Z" fill="#F5F3EF"/>
<path d="M1.53656 129.921C1.72328 129.986 1.94573 130.076 2.01751 130.263C2.09199 130.43 2.04582 130.619 1.98582 130.767C1.83313 131.156 1.64472 131.521 1.40137 131.859C1.30295 132.001 1.18801 132.122 1.04005 132.199C0.768734 132.318 0.45563 132.176 0.180946 132.039C0.126009 132.012 0.0710725 131.985 0.0380435 131.941C0.00501455 131.897 0.0131018 131.84 0.0019808 131.779C-0.015202 131.484 0.0828846 131.204 0.161758 130.921C0.237934 130.658 0.333318 130.398 0.500157 130.186C0.787323 129.816 1.1247 129.785 1.53656 129.921Z" fill="#F5F3EF"/>
<path d="M26.0967 126.622C26.2686 127.351 26.3225 128.082 26.2558 128.836C26.2126 129.143 26.1695 129.45 25.9561 129.713C25.5786 130.169 24.8408 130.261 24.1853 130.326C24.0646 130.348 23.9275 130.348 23.8149 130.313C23.7023 130.277 23.6363 130.19 23.5675 130.121C23.2153 129.7 23.0303 129.204 22.8837 128.714C22.7344 128.243 22.6235 127.778 22.6909 127.298C22.8096 126.454 23.3738 126.063 24.3033 125.861C24.7284 125.764 25.2329 125.659 25.5956 125.867C25.906 126.028 26.0357 126.359 26.1105 126.663L26.0967 126.622Z" fill="#F5F3EF"/>
<path d="M26.5314 131.614C26.7 132.088 26.8027 132.611 26.7903 133.118C26.799 133.334 26.7694 133.545 26.6463 133.724C26.4057 134.042 25.9203 134.15 25.4596 134.222C25.3801 134.231 25.2786 134.256 25.2045 134.226C25.1276 134.215 25.0781 134.149 25.0258 134.103C24.7508 133.829 24.5826 133.493 24.4529 133.161C24.3204 132.849 24.2072 132.54 24.2173 132.189C24.2406 131.605 24.613 131.325 25.2298 131.118C25.5176 131.022 25.8631 130.933 26.1213 131.048C26.3437 131.138 26.4485 131.368 26.5368 131.576L26.5314 131.614Z" fill="#F5F3EF"/>
</g>
<defs>
<filter id="filter0_i_2002_438" x="0" y="0" width="52.4175" height="142.409" filterUnits="userSpaceOnUse" color-interpolation-filters="sRGB">
<feFlood flood-opacity="0" result="BackgroundImageFix"/>
<feBlend mode="normal" in="SourceGraphic" in2="BackgroundImageFix" result="shape"/>
<feColorMatrix in="SourceAlpha" type="matrix" values="0 0 0 0 0 0 0 0 0 0 0 0 0 0 0 0 0 0 127 0" result="hardAlpha"/>
<feOffset dy="-2"/>
<feComposite in2="hardAlpha" operator="arithmetic" k2="-1" k3="1"/>
<feColorMatrix type="matrix" values="0 0 0 0 0.904482 0 0 0 0 0.834809 0 0 0 0 0.695462 0 0 0 1 0"/>
<feBlend mode="normal" in2="shape" result="effect1_innerShadow_2002_438"/>
</filter>
</defs>
</svg>
