<svg width="412" height="543" viewBox="0 0 412 543" fill="none" xmlns="http://www.w3.org/2000/svg">
<g clip-path="url(#clip0_2001_868)">
<path opacity="0.15" d="M373.818 68.0335C362.196 45.4813 346.512 24.0585 324.471 11.4459C293.292 -6.36246 251.656 -2.97399 222.996 18.7123C194.336 40.3985 179.705 78.6883 185.347 114.192C189.333 139.417 202.61 164.116 197.42 189.115C193.471 208.091 178.2 224.205 159.47 229.099C132.352 236.215 105.084 221.117 79.7335 209.145C54.3833 197.172 21.9998 188.701 0.222782 206.321C-14.1824 218.068 -19.1471 238.135 -18.9967 256.772C-18.6582 294.045 -0.454226 330.754 28.9956 353.569C58.4454 376.385 98.5392 384.781 134.646 375.707C147.886 372.394 160.636 366.86 174.176 365.241C187.716 363.622 203.024 366.86 211.186 377.816C223.184 393.854 214.383 417.047 202.197 432.973C190.01 448.898 174.138 463.883 171.581 483.762C168.873 504.997 183.504 525.817 202.723 535.229C221.943 544.642 244.585 544.453 265.534 540.199C295.36 534.175 319.093 519.228 344.819 503.98C363.813 492.76 378.707 475.14 382.732 452.626C385.741 435.646 377.617 415.315 360.992 410.835C353.846 408.914 346.286 410.082 338.877 409.743C331.467 409.404 323.306 406.844 319.921 400.255C316.46 393.478 319.394 385.12 323.832 378.945C328.27 372.771 334.213 367.65 337.673 360.873C345.572 345.437 337.673 325.332 323.494 315.355C309.314 305.378 290.772 303.796 273.583 305.942C256.395 308.088 239.77 313.585 222.695 316.447C195.878 320.965 167.97 318.969 142.093 310.649C127.951 306.093 111.854 295.062 115.013 280.529C116.931 271.832 125.695 265.996 134.458 264.716C143.259 263.398 152.136 265.695 160.749 267.954C182.864 273.752 204.98 279.55 227.133 285.386C234.317 287.268 241.914 289.151 249.098 287.23C256.282 285.31 262.601 278.044 260.795 270.853C259.441 265.469 254.251 262.005 251.505 257.186C245.45 246.606 253.687 232.149 265.271 228.459C276.855 224.769 289.643 229.363 299.497 236.479C309.352 243.594 317.288 253.044 326.615 260.876C335.943 268.707 347.452 275.145 359.563 274.204C371.824 273.262 382.581 264.829 388.975 254.324C395.369 243.82 398.04 231.471 399.695 219.31C406.728 167.805 397.551 114.23 373.78 68.0335H373.818ZM54.2329 328.683C53.7063 329.135 53.1798 329.473 52.6156 329.737C52.4275 329.888 52.2395 330.038 52.0138 330.151C47.9142 332.523 42.6862 331.469 38.6241 329.586C34.4492 327.666 30.989 324.504 27.7168 321.379C27.3783 321.04 27.1526 320.701 26.9646 320.362C23.6924 317.915 21.3228 314.715 20.1569 310.686C18.8781 306.319 19.1038 301.349 22.0751 297.735C24.0685 295.325 27.1526 293.932 30.312 294.12C36.8188 294.459 42.6109 299.203 47.0115 303.608C51.1488 307.749 55.4741 312.832 56.6776 318.706C57.3923 322.207 57.129 326.198 54.2705 328.683H54.2329ZM72.136 314.037C71.9855 315.204 71.8351 316.108 71.3085 317.162C71.0828 317.614 70.782 318.028 70.4435 318.329C69.8417 318.894 69.3151 319.157 68.5629 319.459C68.5629 319.459 68.5253 319.459 68.4877 319.459C68.4877 319.459 68.4877 319.459 68.5253 319.459C68.3372 319.534 68.1492 319.609 67.9611 319.647C67.1713 319.797 66.8327 319.797 66.0805 319.722C65.2907 319.609 64.5385 319.383 63.8614 318.931C61.68 317.501 60.5516 315.054 59.7242 312.682C59.4233 311.853 59.1976 311.025 59.0096 310.197C58.8215 309.331 58.6334 308.465 58.6334 307.561C58.6334 306.394 59.1976 305.415 60.0627 304.775C60.4012 304.399 60.7773 304.06 61.2286 303.834C62.5074 303.156 63.8238 303.119 65.2155 303.42C66.6447 303.721 68.0363 304.512 69.1647 305.453C70.5187 306.62 71.647 308.39 71.9855 310.159C72.2112 311.439 72.324 312.757 72.1736 314.037H72.136ZM231.759 504.206C236.987 506.691 244.171 512.602 241.839 519.266C239.733 525.214 231.571 524.725 226.569 524.047C226.193 524.01 225.854 523.934 225.516 523.859C217.091 523.144 207.086 521.864 201.444 515.124C198.661 512.602 197.721 508.084 199.714 504.733C202.084 500.667 207.048 500.215 211.261 499.951C218.181 499.537 225.553 501.232 231.797 504.206H231.759ZM381.265 221.569C377.541 224.619 372.125 226.878 367.988 223.15C364.114 219.649 364.039 212.834 364.377 208.015C364.791 202.142 366.446 196.419 369.079 191.186C371.035 187.27 374.006 181.849 378.594 180.606C383.522 179.289 387.207 183.204 388.712 187.421C389.013 188.249 389.238 189.153 389.427 190.019C390.141 190.621 390.63 191.487 390.63 192.692C390.63 202.707 389.652 214.755 381.302 221.532L381.265 221.569Z" fill="#2D185F"/>
<path d="M446.881 12.5766C437.719 8.62432 427.733 8.16323 417.978 10.1394C416.989 19.7896 411.782 28.6822 404.762 35.4011C398.995 40.9014 392.107 45.0184 384.823 48.3778C384.395 47.8179 383.967 47.2251 383.505 46.731C384.527 44.8866 384.889 42.647 384.296 40.4403C383.703 38.2995 382.352 36.6197 380.605 35.5329C380.869 33.8861 380.671 32.1734 380.012 30.6584C379.517 32.1405 378.463 33.425 377.177 34.3142C376.123 34.1825 375.068 34.2484 373.981 34.5448C372.926 34.8412 371.97 35.3353 371.146 35.9281C369.696 35.961 368.246 35.4341 367.224 34.3801C367.093 35.961 367.719 37.509 368.773 38.6618C367.785 40.4733 367.455 42.647 368.048 44.8208C368.642 47.0275 370.059 48.7731 371.904 49.8599C371.707 50.7492 371.575 51.7702 371.476 52.7912C368.213 52.89 364.885 52.0666 361.787 50.9139C354.503 48.1802 347.945 43.6021 342.803 37.7725C334.235 40.3086 326.72 45.3477 321.052 52.2643C315.383 59.1478 311.824 67.777 311 76.6367C314.493 74.2983 318.976 73.3432 323.128 74.0348C327.281 74.7594 331.104 77.0978 333.608 80.4902C335.817 76.9661 339.903 74.6935 343.99 73.8372C348.077 72.9809 352.493 73.8372 355.953 76.1757C357.832 71.8281 360.04 67.4806 363.698 64.4505C365.972 62.5732 368.938 61.3216 371.871 61.2228C372.102 62.7378 372.432 64.2858 372.86 65.8667C375.859 76.9002 382.286 84.7389 387.262 83.3886C392.239 82.0382 393.821 72.0257 390.855 60.9922C390.327 59.0161 389.635 57.1717 388.91 55.459C392.601 53.911 396.589 53.0877 400.577 53.3182C407.069 53.6805 413.364 56.5788 417.879 61.2557C418.472 54.1745 422.988 47.5874 429.381 44.4585C435.775 41.3625 443.75 41.8565 449.683 45.743C451.759 37.2455 460.46 31.1195 469.226 31.7782C463.986 23.3137 456.076 16.496 446.947 12.5437L446.881 12.5766Z" fill="#0E0427"/>
<path d="M422.015 492.121C417.796 487.444 412.194 484.545 406.031 483.129C402.933 488.432 397.561 492.154 391.76 494.163C387.015 495.809 381.939 496.369 376.897 496.369C376.798 495.941 376.699 495.48 376.567 495.085C377.655 494.294 378.446 493.109 378.676 491.692C378.907 490.309 378.578 488.992 377.853 487.905C378.446 487.049 378.775 485.995 378.808 484.941C378.116 485.665 377.193 486.126 376.205 486.291C375.644 485.929 375.018 485.698 374.293 485.566C373.601 485.468 372.942 485.468 372.283 485.632C371.459 485.27 370.734 484.578 370.437 483.722C369.943 484.578 369.877 485.665 370.207 486.587C369.152 487.378 368.394 488.531 368.163 489.947C367.932 491.363 368.295 492.746 369.053 493.866C368.69 494.327 368.361 494.887 368.031 495.447C366.12 494.657 364.439 493.306 362.956 491.824C359.496 488.333 356.925 483.985 355.508 479.276C349.938 478.485 344.269 479.407 339.194 481.878C334.119 484.348 329.801 488.366 327 493.24C329.604 492.812 332.471 493.438 334.646 494.953C336.821 496.468 338.403 498.807 338.963 501.409C341.171 499.959 344.105 499.729 346.675 500.322C349.246 500.882 351.553 502.561 352.937 504.801C355.145 502.792 357.584 500.882 360.484 500.124C362.297 499.63 364.307 499.696 366.021 500.42C365.757 501.343 365.527 502.331 365.362 503.352C364.175 510.466 365.823 516.691 369.02 517.218C372.217 517.745 375.776 512.409 376.996 505.295C377.226 504.01 377.292 502.792 377.325 501.606C379.863 501.672 382.368 502.265 384.609 503.451C388.234 505.361 391.101 508.687 392.452 512.574C394.661 508.654 399.011 506.052 403.493 505.954C407.975 505.855 412.457 508.226 414.83 512.047C418.258 507.699 424.882 506.481 429.727 509.148C428.936 502.891 426.2 496.929 421.982 492.219L422.015 492.121Z" fill="#0E0427"/>
<path d="M-11.8719 177.731C-6.92833 175.722 -1.55635 175.558 3.6838 176.743C4.11224 181.947 6.8147 186.756 10.5059 190.445C13.5379 193.475 17.1961 195.747 21.0521 197.625C21.2828 197.328 21.5135 196.999 21.7771 196.768C21.2498 195.78 21.085 194.562 21.4146 193.376C21.7442 192.223 22.5022 191.334 23.4579 190.774C23.3261 189.885 23.4579 188.963 23.8205 188.172C24.0841 188.963 24.6114 189.687 25.3035 190.148C25.8638 190.082 26.457 190.148 27.0173 190.313C27.5776 190.478 28.0719 190.741 28.5333 191.103C29.2913 191.136 30.0823 190.873 30.6425 190.313C30.6755 191.169 30.3459 191.993 29.7527 192.618C30.2471 193.606 30.4118 194.792 30.0823 195.945C29.7527 197.131 28.9617 198.053 27.973 198.613C28.0719 199.107 28.1378 199.634 28.1708 200.194C29.9175 200.292 31.7301 199.864 33.378 199.271C37.2998 197.888 40.8921 195.484 43.6935 192.421C48.2745 193.87 52.2623 196.67 55.2284 200.424C58.1945 204.179 60.0071 208.856 60.3697 213.631C58.5241 212.347 56.1182 211.787 53.8772 212.116C51.6361 212.446 49.5598 213.697 48.2086 215.476C47.0551 213.566 44.8799 212.314 42.7048 211.787C40.5296 211.293 38.1567 211.688 36.2782 212.907C35.3224 210.568 34.1689 208.197 32.2574 206.55C31.038 205.496 29.4891 204.805 27.9071 204.739C27.7753 205.562 27.5776 206.386 27.3139 207.209C25.6001 213.104 22.0408 217.254 19.4042 216.464C16.7677 215.706 16.0097 210.305 17.7234 204.409C18.0201 203.355 18.4155 202.367 18.844 201.445C16.8995 200.556 14.7573 200.095 12.6151 200.161C9.12169 200.292 5.72713 201.775 3.25536 204.245C3.02466 200.457 0.651762 196.834 -2.7428 195.122C-6.13736 193.376 -10.4218 193.574 -13.6515 195.583C-14.6732 191.005 -19.2872 187.612 -24 187.876C-21.0998 183.396 -16.7824 179.806 -11.8389 177.797L-11.8719 177.731Z" fill="#0E0427"/>
</g>
<defs>
<clipPath id="clip0_2001_868">
<rect width="412" height="543" fill="white"/>
</clipPath>
</defs>
</svg>
