<svg width="103" height="81" viewBox="0 0 103 81" fill="none" xmlns="http://www.w3.org/2000/svg">
<g filter="url(#filter0_i_2002_423)">
<path d="M102.141 32.9262C101.52 9.44163 74.9226 1.0515 53.1558 0.102036C31.389 -0.847425 5.005 4.50056 0.407195 30.0779C-4.17121 55.6552 31.3696 66.0992 31.3696 66.0992C31.3696 66.0992 29.8176 78.2872 35.3272 79.3335C40.8368 80.3799 42.5828 66.0992 42.5828 66.0992C42.5828 66.0992 43.1648 80.4768 51.08 80.4768C58.9952 80.4768 60.0428 65.9636 60.0428 65.9636C60.0428 65.9636 60.2368 80.4768 68.1714 79.411C76.106 78.3647 71.644 65.576 71.644 65.576C71.644 65.576 102.781 56.4109 102.141 32.9262ZM40.8756 46.6062C32.3396 52.2642 11.1936 35.4646 25.7048 26.3188C40.2354 17.1536 49.3922 40.9482 40.8756 46.6062ZM57.6566 58.5035C55.0376 59.453 51.08 54.2019 51.08 54.2019C51.08 54.2019 47.103 59.5886 44.8526 57.9222C42.6022 56.2558 47.297 45.5211 51.08 45.5211C54.863 45.5211 60.2756 57.5541 57.6566 58.5035ZM62.5066 47.6913C55.3286 42.9246 63.0498 22.8697 75.2718 30.601C87.5132 38.313 69.6846 52.458 62.5066 47.6913Z" fill="#F5F3EF"/>
</g>
<defs>
<filter id="filter0_i_2002_423" x="0" y="0" width="102.151" height="80.4767" filterUnits="userSpaceOnUse" color-interpolation-filters="sRGB">
<feFlood flood-opacity="0" result="BackgroundImageFix"/>
<feBlend mode="normal" in="SourceGraphic" in2="BackgroundImageFix" result="shape"/>
<feColorMatrix in="SourceAlpha" type="matrix" values="0 0 0 0 0 0 0 0 0 0 0 0 0 0 0 0 0 0 127 0" result="hardAlpha"/>
<feOffset dy="-2"/>
<feComposite in2="hardAlpha" operator="arithmetic" k2="-1" k3="1"/>
<feColorMatrix type="matrix" values="0 0 0 0 0.904482 0 0 0 0 0.834809 0 0 0 0 0.695462 0 0 0 1 0"/>
<feBlend mode="normal" in2="shape" result="effect1_innerShadow_2002_423"/>
</filter>
</defs>
</svg>
