<svg width="47" height="122" viewBox="0 0 47 122" fill="none" xmlns="http://www.w3.org/2000/svg">
<g filter="url(#filter0_i_2002_432)">
<path d="M32.1521 7.52943C32.1521 7.52943 26.9723 -4.71668 22.6655 2.02643C18.3587 8.76954 26.3321 14.5438 26.3321 14.5438L27.7871 39.0747C27.7871 39.0747 17.0589 39.4236 19.7749 47.4262C22.4909 55.4481 33.6653 49.732 33.6653 49.732C33.6653 49.732 44.5875 55.9132 46.4693 48.7244C48.3317 41.5356 38.5541 39.0941 38.5541 39.0941L36.8275 16.6946C36.8275 16.6946 44.3353 15.0476 41.6775 8.84705C39.0197 2.66587 32.1327 7.51005 32.1327 7.51005L32.1521 7.52943Z" fill="#F5F3EF"/>
<path d="M32.5401 65.2333C32.5401 65.2333 25.1681 57.192 20.8613 63.9351C16.5545 70.6782 26.5067 74.011 26.5067 74.011L26.8365 96.7981C26.8365 96.7981 16.1083 97.1468 18.8243 105.149C21.5403 113.171 32.7147 107.455 32.7147 107.455C32.7147 107.455 43.6369 113.636 45.5187 106.448C47.3811 99.2589 37.6035 96.8174 37.6035 96.8174L37.2349 74.4179C37.2349 74.4179 46.6439 70.2713 43.9861 64.0707C41.3283 57.8896 32.5401 65.214 32.5401 65.214V65.2333Z" fill="#F5F3EF"/>
<path d="M35.1398 112.086C31.124 111.699 30.2316 117.376 30.445 119.236C30.9494 122.86 42.57 121.193 43.831 118.578C45.1114 115.962 39.1362 112.474 35.1204 112.086H35.1398Z" fill="#F5F3EF"/>
<path d="M27.3216 112.203C24.819 111.098 -0.459248 116.524 0.00635194 120.089C0.471952 123.654 24.8383 120.922 26.2351 120.089C27.6319 119.256 29.8242 113.288 27.3216 112.203Z" fill="#F5F3EF"/>
<path d="M27.4185 56.5913C27.2439 58.9359 30.4449 60.6798 33.0639 60.8542C35.6829 61.0286 39.8345 58.5096 39.3301 56.6301C38.5929 54.208 36.2067 52.8129 33.3937 52.8129C30.5807 52.8129 27.4185 54.9249 27.4185 56.5913Z" fill="#F5F3EF"/>
</g>
<defs>
<filter id="filter0_i_2002_432" x="0" y="0" width="46.7052" height="121.875" filterUnits="userSpaceOnUse" color-interpolation-filters="sRGB">
<feFlood flood-opacity="0" result="BackgroundImageFix"/>
<feBlend mode="normal" in="SourceGraphic" in2="BackgroundImageFix" result="shape"/>
<feColorMatrix in="SourceAlpha" type="matrix" values="0 0 0 0 0 0 0 0 0 0 0 0 0 0 0 0 0 0 127 0" result="hardAlpha"/>
<feOffset dy="-2"/>
<feComposite in2="hardAlpha" operator="arithmetic" k2="-1" k3="1"/>
<feColorMatrix type="matrix" values="0 0 0 0 0.904482 0 0 0 0 0.834809 0 0 0 0 0.695462 0 0 0 1 0"/>
<feBlend mode="normal" in2="shape" result="effect1_innerShadow_2002_432"/>
</filter>
</defs>
</svg>
