<svg width="46" height="124" viewBox="0 0 46 124" fill="none" xmlns="http://www.w3.org/2000/svg">
<g filter="url(#filter0_i_2002_435)">
<path d="M15.2543 66.2797C15.2543 66.2797 7.8823 58.2384 3.5755 64.9815C-0.731305 71.7246 9.2209 75.0574 9.2209 75.0574L9.5507 97.8444C9.5507 97.8444 -1.17751 98.1932 1.53849 106.196C4.25449 114.218 15.4289 108.502 15.4289 108.502C15.4289 108.502 26.3511 114.683 28.2329 107.494C30.0953 100.305 20.3177 97.8638 20.3177 97.8638L19.9491 75.4643C19.9491 75.4643 29.3581 71.3176 26.7003 65.1171C24.0425 58.9359 15.2543 66.2603 15.2543 66.2603V66.2797Z" fill="#F5F3EF"/>
<path d="M15.6617 7.52943C15.6617 7.52943 20.8415 -4.71668 25.1483 2.02643C29.4551 8.76954 21.4817 14.5438 21.4817 14.5438L20.0267 39.0747C20.0267 39.0747 30.7549 39.4236 28.0389 47.4262C25.3229 55.4287 14.1485 49.732 14.1485 49.732C14.1485 49.732 3.2263 55.9132 1.3445 48.7244C-0.517903 41.5356 9.2597 39.0941 9.2597 39.0941L10.9863 16.6946C10.9863 16.6946 3.4785 15.0476 6.1363 8.84705C8.7941 2.66587 15.6811 7.51005 15.6811 7.51005L15.6617 7.52943Z" fill="#F5F3EF"/>
<path d="M9.22087 113.675C13.3919 113.288 14.3231 118.965 14.1097 120.825C13.5859 124.449 1.51906 122.782 0.180457 120.166C-1.13874 117.551 5.06926 114.063 9.22087 113.675Z" fill="#F5F3EF"/>
<path d="M17.3494 113.811C19.949 112.706 46.236 118.132 45.751 121.697C45.266 125.263 19.9296 122.53 18.494 121.697C17.0584 120.864 14.7498 114.896 17.3688 113.811H17.3494Z" fill="#F5F3EF"/>
<path d="M8.81347 56.9982C8.63887 59.3428 11.8399 61.0868 14.4589 61.2611C17.0779 61.4355 21.2295 58.9165 20.7251 57.037C19.9879 54.6149 17.6017 53.2198 14.7887 53.2198C11.9757 53.2198 8.81347 55.3318 8.81347 56.9982Z" fill="#F5F3EF"/>
</g>
<defs>
<filter id="filter0_i_2002_435" x="0" y="0" width="45.7576" height="123.484" filterUnits="userSpaceOnUse" color-interpolation-filters="sRGB">
<feFlood flood-opacity="0" result="BackgroundImageFix"/>
<feBlend mode="normal" in="SourceGraphic" in2="BackgroundImageFix" result="shape"/>
<feColorMatrix in="SourceAlpha" type="matrix" values="0 0 0 0 0 0 0 0 0 0 0 0 0 0 0 0 0 0 127 0" result="hardAlpha"/>
<feOffset dy="-2"/>
<feComposite in2="hardAlpha" operator="arithmetic" k2="-1" k3="1"/>
<feColorMatrix type="matrix" values="0 0 0 0 0.904482 0 0 0 0 0.834809 0 0 0 0 0.695462 0 0 0 1 0"/>
<feBlend mode="normal" in2="shape" result="effect1_innerShadow_2002_435"/>
</filter>
</defs>
</svg>
