<svg width="263" height="83" viewBox="0 0 263 83" fill="none" xmlns="http://www.w3.org/2000/svg">
<path d="M261.072 68.7337C259.769 70.9303 257.691 72.7718 255.389 73.8898C251.22 75.9418 246.405 76.1654 241.749 76.3101C171.009 78.2963 97.823 86.8198 27.2806 79.2302C16.5736 78.0727 9.54963 75.2315 5.31419 71.6274C-10.7857 58.0004 13.2984 33.811 29.7403 52.1339C19.7568 25.8268 45.4062 -5.07086 87.629 0.782467C115.949 4.70222 131.549 22.078 133.653 39.7038C134.653 27.4841 148.872 18.8686 160.644 22.2227C171.417 25.2875 178.625 36.4943 178.704 47.688C180.283 36.81 192.344 28.2471 203.367 30.5752C215.442 33.127 223.387 47.0435 220.375 59.0132C235.106 43.4131 261.111 51.029 262.44 62.8672C262.676 64.9323 262.111 66.9579 261.058 68.7468L261.072 68.7337Z" fill="#F8FEFD"/>
<path d="M261.072 68.7337C259.769 70.9303 257.691 72.7718 255.389 73.8898C251.22 75.9418 246.405 76.1654 241.749 76.3101C171.009 78.2963 97.823 86.8198 27.2806 79.2302C16.5736 78.0727 9.54965 75.2315 5.31421 71.6274C9.29973 66.7738 16.1659 63.3012 21.7167 62.4989C32.4105 60.9731 43.0386 64.8402 53.1536 68.6416C50.1415 57.8688 47.4187 45.2546 54.1533 36.3102C66.2019 20.2892 96.3893 30.3648 95.2186 59.2105C105.478 51.463 107.162 34.666 98.6517 25.0376C117.317 26.4056 128.339 46.9119 119.158 63.2355C126.853 62.0516 129.826 48.9244 137.481 50.4371C144.123 51.7393 143.479 62.078 148.543 66.5765C152.673 58.2371 166.3 57.1717 171.654 64.7613C174.482 68.76 175.797 73.2848 181.848 70.4568C190.516 66.3923 195.725 56.0142 193.778 46.6357C207.103 45.2809 205.472 66.6422 207.695 68.9047C211.838 73.1138 224.663 60.0523 232.607 66.7738C236.724 70.2595 237.185 72.8902 241.565 68.8652C245.866 64.8928 252.706 64.8402 258.073 67.1684C259.112 67.6156 260.111 68.1418 261.058 68.7205L261.072 68.7337Z" fill="#F7C9B3"/>
<path d="M165.156 35.784C169.97 40.2168 172.14 47.3328 170.628 53.6991C177.086 20.3549 149.569 23.275 150.884 29.7071C151.161 31.0356 162.907 33.7058 165.156 35.784Z" fill="#F7C9B3"/>
</svg>
