<svg width="250" height="95" viewBox="0 0 250 95" fill="none" xmlns="http://www.w3.org/2000/svg">
<path d="M232.332 66.7181C222.059 90.9469 190.885 92.7753 176.956 72.5977C167.314 86.3432 150.609 91.9466 134.115 90.7891C119.567 89.7763 114.476 84.4754 108.781 74.8602C98.0082 90.5918 83.2762 94.4852 66.808 94.7878C51.9051 95.0771 38.9488 92.0387 33.1613 76.6622C27.0054 79.3981 16.0485 80.0295 8.5773 75.7151C-0.117189 70.6773 -1.82715 61.8908 1.76377 55.314C4.32871 50.6445 9.57697 47.0799 16.9166 46.7905C13.26 30.9931 30.4385 20.1546 43.1711 28.4413C47.7748 -3.90323 95.5485 -9.90124 106.65 18.6156C113.911 14.5775 124.578 13.3542 131.655 18.4972C139.929 24.5084 134.825 27.7573 139.047 21.1937C153.464 -1.16729 187.386 6.11977 187.636 32.7557C198.001 24.3506 212.76 22.417 221.586 28.8622C226.097 32.1638 229.057 37.662 229.057 45.6198C237.067 44.8964 248.879 50.8418 249.708 58.3788C250.905 69.2962 240.737 70.5853 232.306 66.705L232.332 66.7181Z" fill="#F8FEFD"/>
<path d="M232.332 66.7181C222.059 90.9469 190.885 92.7753 176.956 72.5978C167.314 86.3432 150.609 91.9466 134.115 90.7891C119.567 89.7763 114.476 84.4754 108.781 74.8602C98.0082 90.5918 83.2762 94.4852 66.808 94.7878C51.9051 95.0771 38.9488 92.0387 33.1613 76.6622C27.0054 79.3981 16.0485 80.0295 8.5773 75.7151C-0.117189 70.6773 -1.82715 61.8908 1.76377 55.314C5.63091 64.6399 16.9956 72.532 42.5529 54.6037C34.8055 74.7023 68.7021 106.547 108.281 53.8145C119.698 92.2228 161.211 82.6208 158.699 59.2601C166.564 68.4412 184.795 62.4695 185.69 50.434C188.228 57.6159 199.632 55.4455 204.394 49.487C207.959 45.0279 211.905 32.6636 221.586 28.8622C226.097 32.1638 229.057 37.662 229.057 45.6199C237.067 44.8964 248.879 50.8418 249.708 58.3788C250.905 69.2962 240.737 70.5853 232.306 66.705L232.332 66.7181Z" fill="#F7C9B3"/>
<path d="M84.3548 33.7554C94.3252 33.5449 103.73 39.6613 109.228 47.9875C113.608 34.0448 134.601 37.6883 133.983 52.315C135.877 35.0707 114.253 25.4555 102.704 38.3986C99.9812 29.441 92.1812 21.9435 82.9211 20.615C66.8343 18.2868 55.075 35.0444 61.3098 46.2775C69.8596 42.5814 73.6347 33.979 84.3548 33.7554Z" fill="#F7C9B3"/>
<path d="M152.082 24.9819C161.619 15.8008 177.6 23.9297 175.732 37.0701C180.56 31.0852 178.942 21.0359 172.484 16.8662C166.051 12.7229 154.503 14.9326 152.082 24.9819Z" fill="#F7C9B3"/>
</svg>
