<svg width="107" height="60" viewBox="0 0 107 60" fill="none" xmlns="http://www.w3.org/2000/svg">
<path d="M105.102 39.6991C104.012 42.9104 102.042 45.8091 99.077 47.6658C93.9995 50.8203 86.1181 50.6592 79.5344 45.1649C71.956 55.5946 58.9971 58.6165 46.1423 59.0238C30.3604 59.5354 24.1462 54.7326 19.6465 45.3639C-0.00978392 43.2609 -3.66633 27.3653 3.17312 20.0996C5.94869 17.1535 10.4483 15.6189 16.3121 17.0303C21.7306 -2.84387 46.0665 -0.740882 50.8314 7.19743C59.2529 -2.21866 73.1875 -2.19024 81.0122 6.07963C82.6415 7.79423 83.7025 9.52778 84.4129 11.1003C86.0897 14.8326 85.7771 17.7313 86.1654 17.6555C86.9801 17.5798 87.8516 17.5608 88.7421 17.6082C94.5206 17.9208 101.341 20.8479 104.079 25.2149C106.352 28.8526 106.826 34.6689 105.092 39.718L105.102 39.6991Z" fill="#F8FEFD"/>
<path d="M69.1236 32.6985C69.2562 33.0396 69.3509 33.3711 69.4267 33.7122C69.3036 33.3901 69.1994 33.0585 69.1236 32.6985Z" fill="#F7C9B3"/>
<path d="M105.102 39.699C104.012 42.9104 102.042 45.8091 99.077 47.6658C93.9996 50.8203 86.1181 50.6592 79.5344 45.1649C71.9561 55.5946 58.9971 58.6165 46.1423 59.0238C30.3604 59.5353 24.1462 54.7326 19.6465 45.3638C-0.00978392 43.2609 -3.66633 27.3653 3.17312 20.0995C4.56564 25.717 3.45731 31.0218 8.97055 35.1804C14.4364 39.3012 23.6536 37.7476 26.4481 31.505C30.2373 58.9859 55.1227 51.8717 51.8071 39.5854C58.7887 48.8025 71.4824 42.2283 69.4268 33.7027C71.7477 40.0969 80.709 41.3189 84.5551 35.3699C88.6284 43.2703 98.7644 44.8144 105.102 39.699Z" fill="#F7C9B3"/>
<path d="M40.989 34.7068C33.1928 31.3628 37.9198 19.4648 45.8771 22.3636C45.4129 15.041 56.2405 13.6106 57.6993 20.791C55.5395 17.4566 49.3726 10.8161 45.9434 11.9433C43.1583 12.8622 43.5657 17.144 41.4816 19.2185C39.9091 15.8841 34.8316 15.2399 32.0561 17.665C26.9881 22.0699 29.5173 31.7228 39.5397 33.8447L40.989 34.7068Z" fill="#F7C9B3"/>
<path d="M81.5521 29.6578C81.1922 28.9284 80.9932 28.1611 80.9364 27.3843C81.2774 28.0853 81.4858 28.862 81.5521 29.6578Z" fill="#F7C9B3"/>
<path d="M88.7515 17.5987C87.2075 18.1766 85.7486 18.9154 84.4698 19.948C82.2626 21.7289 80.7374 24.6371 80.9458 27.3842C79.3449 23.9835 75.0063 21.871 71.4161 23.2256C75.3852 21.6342 77.6398 16.6893 76.2473 12.6538C79.127 14.7852 82.7741 13.6485 84.4224 11.1003C86.0991 14.8326 85.7865 17.7313 86.1749 17.6555C86.9896 17.5798 87.8611 17.5608 88.7515 17.6082V17.5987Z" fill="#F7C9B3"/>
</svg>
