<svg width="156" height="175" viewBox="0 0 156 175" fill="none" xmlns="http://www.w3.org/2000/svg">
    <g clip-path="url(#clip0_2010_2288)">
        <path d="M131.25 78.86C135.76 95.59 129.77 93.59 114.16 107.92C98.5501 122.25 108.21 136.31 120.33 140.82C132.44 145.34 136.44 130.98 138.27 125.14C140.08 119.31 126.28 105.78 134.37 102.65C157.69 109.28 146.79 130.14 145.49 132.47C145.66 132.55 145.88 132.66 146.18 132.82C146.93 133.21 148.16 133.92 150.13 135.1C156.98 139.21 138.67 148.72 138.67 148.72C138.67 148.72 139.85 151.03 124.91 164.55C101.39 183.99 65.7301 171.76 45.5701 144.35C25.4101 116.94 41.3301 84.76 37.7001 80.38C34.0701 76.01 25.7401 82.79 18.5301 81.59C11.3301 80.4 20.5101 67.54 20.5101 67.54C20.5101 67.54 15.0501 70.31 3.40006 70.31C-4.66994 70.31 3.20006 55.61 10.8301 46.74C14.2101 42.82 17.5501 40.04 19.4201 40.18C25.5301 40.65 39.7501 55.32 39.7501 55.32C43.3401 10.54 77.6301 5.64001 89.3401 6.54001C137.48 10.25 126.88 55.82 126.88 55.82C126.88 55.82 130.7 59.53 136.08 56.02C141.48 52.51 145.86 55.41 152.88 66.19C159.89 76.97 153.39 94.91 148.26 86.15C143.14 77.39 131.25 78.86 131.25 78.86Z" fill="#F6F5FF"/>
        <path d="M138.66 148.72C138.66 148.72 139.84 151.03 124.9 164.55C101.38 183.99 65.7201 171.76 45.5601 144.35C25.4001 116.94 41.3201 84.76 37.6901 80.38C34.0601 76.01 25.7301 82.79 18.5201 81.59C11.3201 80.4 20.5001 67.54 20.5001 67.54C20.5001 67.54 15.0401 70.31 3.39005 70.31C-4.67995 70.31 3.19005 55.61 10.8201 46.74C10.5201 49.5 11.0101 52.31 12.9601 54.73C16.3201 58.89 22.9101 60.01 27.4501 57.17C24.9401 60.33 26.5901 65.42 29.9901 67.61C33.3801 69.8 37.7901 69.69 41.7101 68.75C45.6401 67.82 49.3801 66.15 53.3601 65.44C38.5201 96.44 55.8601 128.14 71.84 145.8C85.11 160.47 102.29 158.13 110.07 158.14C114.51 158.14 119.22 158.06 122.96 155.69C125.11 154.32 126.76 152.29 128.4 150.33C133.18 144.68 138.38 139.39 143.95 134.52C144.65 133.91 145.38 133.29 146.17 132.8C146.92 133.19 148.15 133.9 150.12 135.08C156.97 139.19 138.66 148.7 138.66 148.7V148.72Z" fill="#D6D4F4"/>
        <path d="M96.0701 29.53C96.5001 33.14 99.87 35.24 105.63 37.9C112.33 40.98 113.12 25.06 105.51 18.78C105.25 18.57 104.97 18.4 104.69 18.26C102.86 17.37 100.58 17.92 99.3701 19.67C98.4001 21.06 97.3401 23.01 96.5501 25.59C96.0801 27.1 95.9301 28.39 96.0701 29.53Z" fill="#1A0F35"/>
        <path d="M96.0701 29.53C96.5001 33.14 99.8701 35.24 105.63 37.9C112.33 40.98 113.12 25.06 105.51 18.78C105.25 18.57 104.97 18.4 104.69 18.26C104.69 18.26 111.36 34.49 105.63 33.75C99.8901 33.01 96.0801 29.53 96.0801 29.53H96.0701Z" fill="#332368"/>
        <path d="M78.0701 28.29C76.7801 31.44 73.2101 32.51 67.3301 33.47C60.5001 34.59 63.7701 19.98 72.2201 16.21C72.5101 16.08 72.8001 16 73.0901 15.94C74.9701 15.6 76.8901 16.66 77.5501 18.54C78.0701 20.04 78.5501 22.06 78.6201 24.6C78.6701 26.08 78.4901 27.29 78.0701 28.29Z" fill="#1A0F35"/>
        <path d="M78.0701 28.29C76.7801 31.44 73.2101 32.51 67.3301 33.47C60.5001 34.59 63.7701 19.98 72.2201 16.21C72.5101 16.08 72.8001 16 73.0901 15.94C73.0901 15.94 63.0001 28.95 68.3701 29.72C73.7501 30.48 78.0601 28.29 78.0601 28.29H78.0701Z" fill="#332368"/>
        <path d="M80.4201 35.69C78.6701 36.32 76.8901 37.29 75.0701 36.9C72.9601 36.44 71.3701 34.21 69.2101 34.36C69.9601 40.72 73.2201 46.75 78.1201 50.87C80.1001 52.53 82.4501 53.93 85.0301 54.08C87.6701 54.24 90.2001 53.08 92.5201 51.82C96.8701 49.45 101.2 46.31 102.93 41.66C101.33 39.7 98.9801 38.36 96.4801 37.99C95.2601 40.82 92.9601 43.16 90.1701 44.44C90.0501 42.55 90.1901 40.69 90.4201 38.82C90.5401 37.82 90.9001 36.63 90.1401 35.8C88.2701 33.75 82.6301 34.9 80.4301 35.69H80.4201Z" fill="#1A0F35"/>
        <path d="M124.05 16.87C124.86 18.21 125.51 19.65 126.54 20.83C126.73 21.05 126.97 21.28 127.26 21.28C127.88 21.28 128.04 20.42 127.93 19.81C127.29 16.37 124.56 13.76 121.97 11.41C119.77 9.40999 117.57 7.40999 115.36 5.40999C114.22 4.37999 113.07 3.33999 111.73 2.57999C110.26 1.75999 103.65 -0.720007 105.15 2.98999C105.97 4.99999 108.01 4.96999 109.82 5.49999C115.32 7.10999 121.11 12.02 124.04 16.87H124.05Z" fill="#F6F5FF"/>
        <path d="M118.51 1.1C118.57 1.32 118.71 1.5 118.85 1.67C120.45 3.54 123.02 4.38 124.58 6.29C124.8 6.56 125.02 6.87 125.35 6.99C125.97 7.21 126.64 6.59 126.67 5.94C126.7 5.29 126.26 4.7 125.73 4.3C124.39 3.28 123.18 2.33 121.92 1.21C121.37 0.73 117.9 -1.16 118.51 1.11V1.1Z" fill="#F6F5FF"/>
        <path d="M32.71 146.4C32.17 144.94 31.79 143.39 31 142.05C30.85 141.8 30.66 141.53 30.37 141.47C29.76 141.35 29.44 142.17 29.44 142.78C29.43 146.28 31.63 149.35 33.74 152.14C35.53 154.52 37.32 156.89 39.12 159.27C40.04 160.5 40.98 161.73 42.16 162.72C43.45 163.8 49.49 167.47 48.7 163.54C48.27 161.41 46.26 161.06 44.58 160.2C39.48 157.6 34.7 151.7 32.72 146.39L32.71 146.4Z" fill="#F6F5FF"/>
        <path d="M35.23 162.93C35.21 162.71 35.11 162.5 35 162.31C33.77 160.18 31.4 158.87 30.23 156.71C30.06 156.4 29.91 156.06 29.6 155.88C29.04 155.55 28.26 156.03 28.11 156.67C27.96 157.31 28.29 157.97 28.73 158.46C29.86 159.71 30.87 160.87 31.9 162.21C32.35 162.79 35.41 165.29 35.23 162.94V162.93Z" fill="#F6F5FF"/>
    </g>
    <defs>
        <clipPath id="clip0_2010_2288">
            <rect width="155.95" height="174.04" fill="white"/>
        </clipPath>
    </defs>
</svg>
