<svg width="100" height="100" viewBox="0 0 100 100" fill="none" xmlns="http://www.w3.org/2000/svg">
<path d="M58.6505 17.7567L50 0L41.3496 17.7564L33.9187 11.1762L33.3172 21.0835L14.6447 14.6446L21.0837 33.3175L11.1762 33.9188L17.7565 41.3494L0 50L17.7566 58.6506L11.1762 66.0815L21.0836 66.6828L14.6447 85.3554L33.3172 78.9165L33.9187 88.8238L41.3496 82.2436L50 100L58.6504 82.2436L66.0814 88.8238L66.6828 78.9165L85.3553 85.3554L78.9164 66.6828L88.8238 66.0815L82.2435 58.6506L100 50L82.2436 41.3497L88.8238 33.9188L78.9163 33.3175L85.3553 14.6446L66.6828 21.0835L66.0814 11.1762L58.6505 17.7567Z" fill="url(#paint0_linear_2010_2103)"/>
<circle cx="50" cy="49.9999" r="26.3158" fill="#F6FB8E"/>
<defs>
<linearGradient id="paint0_linear_2010_2103" x1="50" y1="0" x2="50" y2="100" gradientUnits="userSpaceOnUse">
<stop stop-color="#FFAE34"/>
<stop offset="1" stop-color="#FF7434"/>
</linearGradient>
</defs>
</svg>
