<svg width="412" height="555" viewBox="0 0 412 555" fill="none" xmlns="http://www.w3.org/2000/svg">
<g clip-path="url(#clip0_54806_103)">
<path d="M526.956 300.508L525.722 275.985L535.422 275.498L535.097 269.034L525.397 269.521L524.803 257.674L519.45 257.944L520.045 269.79L510.345 270.277L510.67 276.737L520.37 276.25L521.652 301.711C503.988 305.714 486.305 309.617 468.601 313.421L474.33 292.723L483.694 295.31L485.419 289.075L476.055 286.488L479.22 275.055L474.056 273.627L470.891 285.061L461.527 282.474L459.802 288.709L469.166 291.296L462.69 314.69C453.234 316.708 443.77 318.697 434.299 320.656C433.339 319.545 432.386 318.409 431.149 317.664C428.264 315.756 429.671 311.93 429.479 309.03C429.789 305.444 425.382 304.017 425.722 300.217C425.164 290.359 422.313 280.073 427.196 270.709C431.533 263.124 418.985 270.085 425.826 250.251C428.759 236.571 438.152 249.462 443.826 238.349C445.972 234.28 448.798 231.332 451.672 227.326C455.79 229.82 461.135 235.756 465.006 236.254C471.855 233.302 472.863 234.45 471.227 226.477C470.097 227.056 469.387 227.421 468.604 227.827C470.303 231.963 466.924 233.904 463.44 231.893C459.344 229.377 455.177 226.968 451.081 224.448C448.454 222.297 442.869 230.443 440.346 232.015C438.304 234.512 435.396 232.679 432.8 232.273C429.302 231.229 432.637 226.473 432.493 223.95C433.117 218.611 440.265 218.574 440.996 213.221C441.543 210.967 443.017 210.284 445.17 210.336C449.984 210.454 454.8 210.635 459.606 210.498C462.258 210.424 463.466 211.576 464.327 213.889C466.244 219.032 466.321 218.995 471.859 218.272C477.41 216.962 482.659 218.906 486.83 222.629C489.386 225.038 488.086 229.115 488.4 232.262C491.684 223.751 490.882 221.29 483.712 215.774C491.632 210.144 495.071 215.995 496.67 222.773C496.895 222.699 497.121 222.625 497.35 222.551C496.622 219.08 496.87 214.664 493.999 212.029C487.288 210.594 480.724 211.819 474.149 213.302C469.901 214.158 469.243 208.801 467.544 206.101C465.638 201.788 460.049 203.898 456.3 203.134C460.319 199.991 476.42 192.642 479.601 198.253C481.507 200.386 482.637 204.071 485.781 204.551C492.537 205.031 499.396 202.891 503.253 209.978C507.157 217.471 517.411 212.516 516.174 223.371C515.405 228.049 520.241 226.957 522.128 229.465C523.369 234.653 518.264 237.56 515.232 240.998C514.504 241.721 513.858 242.795 512.513 241.939C511.169 241.087 509.144 240.925 509.51 238.512C509.676 237.416 509.54 236.272 509.54 234.771C508.797 235.232 508.553 235.291 508.487 235.435C505.672 241.12 507.216 242.592 512.631 244.821C515.956 246.687 520.858 238.744 523.942 237.11C526.088 235.35 525.785 232.93 526.276 230.672C527.994 225.071 519.79 226.554 520.488 221.769C520.891 218.947 521.194 216.11 521.537 213.28C510.312 212.199 509.24 208.831 508.269 204.105C511.191 203.042 514.142 201.968 517.182 200.858C516.661 198.275 514.338 195.704 517.19 193.907C519.842 192.557 522.232 188.144 525.312 191.004C530.207 194.069 536.605 201.356 541.99 202.223C544.469 201.651 547.778 201.341 549.792 199.836C550.416 196.851 551.284 193.83 549.345 190.852C548.938 191.336 548.695 191.889 548.809 192.358C549.625 195.693 548.635 197.537 545.385 198.567C544.236 198.954 542.685 199.685 541.58 198.976C539.681 196.63 532.493 192.645 533.616 189.568C540.509 175.571 552.174 178.818 550.124 173.512C547.313 166.447 546.641 159.629 555.159 156.884C557.261 155.892 557.781 156.132 559.285 158.799C560.197 160.419 559.861 161.625 558.228 162.809C558.941 162.935 560.134 163.112 560.282 162.802C560.991 161.289 561.671 159.666 561.826 158.032C561.893 157.345 560.552 156.589 559.987 155.77C557.346 151.597 554.121 154.704 550.793 155.759C546.523 155.999 547.745 161.765 543.686 161.95C541.011 163.038 533.834 162.19 533.712 165.728C535.77 165.344 537.809 164.82 539.877 164.617C543.235 164.285 543.246 164.377 543.985 167.657C545.418 174.018 545.44 174.077 539.323 176.124C535.086 177.56 533.539 182.3 530.676 185.396C528.866 187.617 525.504 184.673 523.336 184.123C519.953 182.603 516.787 188.082 513.721 189.299C511.992 190.395 511.006 191.789 510.445 193.697C509.458 197.043 508.764 197.737 505.299 197.67C500.028 197.567 494.764 197.154 489.504 196.785C485.688 194.56 483.657 189.266 486.73 185.123C489.109 182.16 488.821 176.172 493.929 176.652C501.014 176.442 507.888 177.028 514.922 175.752C509.458 164.484 505.96 167.244 515.623 157.043C523.753 161.968 523.591 164.835 525.006 173.538C525.235 173.516 525.467 173.494 525.696 173.475C527.318 158.504 527.791 162.618 516.2 153.534C512.155 157.231 508.147 160.854 504.221 164.562C503.5 166.606 505.451 168.775 506.101 170.867C488.001 173.313 492.625 167.111 478.592 181.931C476.856 183.031 472.682 188.86 471.356 184.971C471.149 182.636 468.364 179.102 471.197 177.604C474.887 175.711 473.706 171.966 474.659 169.004C471.718 171.487 470.706 175.398 467.009 177.198C466.406 177.563 466.081 178.762 466.044 179.592C465.952 181.751 466.129 183.916 466.122 186.082C466.233 190.122 455.498 187.355 452.392 190.207C448.251 192.288 444.151 194.446 440.306 196.434C436.534 192.885 437.812 189.528 439.231 186.111C441.314 181.216 450.866 185.949 452.765 181.12C454.767 177.198 455.491 171.645 459.529 169.299C468.272 165.647 477.425 163.492 486.819 162.396C488.466 162.204 489.589 161.692 490.376 160.216C492.452 156.316 495.366 153.39 499.769 152.092C502.392 151.387 505.096 148.871 507.907 149.517C513.3 152.431 517.267 145.204 522.258 148.203C525.53 150.04 528.884 151.73 532.312 153.538C530.949 146.528 537.181 144.562 541.111 140.061C540.239 138.6 539.622 138.913 538.703 139.644C535.241 141.695 531.902 146.631 527.621 146.115C518.194 142.747 519.022 141.027 509.351 145.713C509.237 145.569 509.122 145.425 509.011 145.281C509.813 143.872 510.614 142.462 511.556 140.806C510.075 140.278 508.864 139.847 507.656 139.419C507.6 139.537 507.545 139.655 507.486 139.773C508.184 140.3 508.882 140.824 509.569 141.341C506.969 145.229 503.677 147.569 500.29 145.215C496.781 141.518 492.23 135.726 495.998 130.727C499.463 127.052 502.026 121.101 508.062 122.366C511.937 122.901 516.078 113.56 519.092 115.792C520.972 117.935 530.883 121.902 527.444 124.787C524.84 128.317 522.789 127.14 518.97 126.757C517.596 128.967 523.539 131.029 524.854 129.937C529.232 127.395 531.356 121.879 536.686 121.278C539.312 120.481 538.304 114.106 538.954 111.689C538.799 109.679 536.069 109.882 534.647 109.181C535.744 112.298 538.791 109.605 536.523 115.821C532.807 124.713 523.916 114.763 518.819 112.287C515.793 110.125 513.256 114.36 511.043 115.999C508.509 118.924 505.114 118.884 501.738 118.976C499.367 118.422 499.795 114.866 498.816 112.988C499.88 112.649 500.497 112.449 501.228 112.217C494.679 108.952 500.859 118.275 491.333 129.93C485.097 137.142 495.23 144.363 488.673 149.69C486.091 151.845 484.24 154.696 480.218 154.995C473.883 155.464 467.603 156.652 461.287 157.445C458.062 157.29 457.792 152.328 456.13 149.897C461.113 147.177 466.654 145.635 470.728 141.688L470.503 141.204C466.528 142.385 462.557 143.569 458.343 144.824V135.766C458.14 135.733 457.94 135.704 457.737 135.67C456.348 139.825 457.164 145.311 451.886 146.794C450.645 147.163 450.501 148.059 450.914 149.214C451.62 153.062 455.251 157.286 453.478 161.094C449.16 166.746 446.818 175.287 438.437 175.49C434.384 176.158 431.592 179.902 428.467 182.282C425.844 183.924 428.448 196.969 427.879 201.002C427.658 204.581 420.255 206.816 420.521 201.319C420.902 195.46 417.404 185.318 421.958 181.112C423 180.201 423.221 179.179 423.022 177.862C422.35 173.427 423.779 169.779 427.144 166.775C429.619 163.289 429.117 158.312 430.439 154.309C432.981 149.251 438.558 145.89 442.788 142.263C449.533 137.755 447.172 134.077 450.061 128.83C455.184 122.82 458.915 125.045 465.716 126.443C465.79 126.248 465.86 126.052 465.934 125.857C463.052 123.326 453.578 121.809 457.992 116.626C463.263 110.793 465.114 110.586 472.8 111.391C475.322 111.651 476.345 113.038 475.87 115.552C475.6 119.087 471.884 116.139 469.956 115.777C471.803 118.98 476.132 122.333 478.275 117.637C478.652 115.441 478.788 113.206 479.102 110.996C479.291 109.671 478.722 109.199 477.477 109.022C473.052 108.395 468.645 107.635 464.212 107.063C460.275 107.86 457.648 112.162 454.523 114.545C453.858 115.183 453.208 116.168 453.142 117.039C453.186 125.595 444.036 124.44 443.553 131.638C443.276 137.072 438.3 137.257 433.808 138.733C435.939 133.756 431.961 131.642 429.357 128.852C424.839 125.975 428.397 121.828 429.353 118.009C430.583 114.036 438.171 116.814 441.521 115.925C448.787 112.995 446.112 100.839 458.103 100.226C458.782 100.171 459.684 99.6177 460.023 99.0311C462.875 93.9472 468.431 92.1504 473.406 89.8778C469.901 89.2432 465.656 92.2205 462.676 91.5417C461.039 90.7448 460.23 88.1327 459.203 86.2327C457.6 83.2738 457.778 82.7278 460.814 81.311C462.653 80.8277 463.496 82.6798 464.294 84.174C465.483 74.423 453.205 80.4662 456.256 87.1624C457.748 90.2947 461.542 97.2787 455.303 97.4336C451.535 97.3672 451.483 97.5037 450.12 93.8955C447.435 89.3945 448.539 80.6617 441.661 80.5953C440.479 80.5953 439.116 80.0493 438.156 80.4736C435.77 81.9641 428.603 84.0818 428.245 86.823C431.141 95.8619 428.201 98.1678 437.642 94.7551C432.19 94.2313 432.334 92.951 431.932 88.2286C433.228 85.2329 438.473 82.665 441.835 84.3474C445.422 85.908 445.58 93.925 447.065 97.4963C446.641 101.603 442.577 104.849 440.464 108.328C439.877 109.074 438.562 109.62 437.583 109.623C434.347 110.276 427.661 107.528 425.844 110.453C424.2 112.176 420.562 122.617 417.998 119.297C416.373 116.847 407.578 111.973 410.215 109.21C411.989 105.491 417.001 102.37 415.882 97.9501C414.109 90.6526 412.325 83.3587 410.677 76.0352C410.271 74.2274 409.473 73.7183 407.733 74.0577C401.439 75.8434 388.444 71.2575 385.762 65.7456C386.774 62.0082 387.384 58.0458 391.835 56.3524C393.56 55.6957 394.893 55.1792 396.452 56.4594C398.875 58.4812 401.188 58.1565 403.337 55.9023C406.193 54.29 402.673 49.5676 402.285 47.0847C400.331 44.3066 396.847 44.3619 393.512 42.7976C394.313 46.1845 398.487 45.1072 399.947 47.9037C400.955 49.8665 402.665 55.1497 398.569 54.017C396.862 53.4526 395.747 51.4308 393.722 52.4195C391.281 53.412 388.688 54.0244 386.213 54.9468C384.417 54.7955 378.784 66.2104 380.081 67.4095C388.436 80.1673 388.355 76.7288 402.233 80.8757C403.888 81.2926 404.804 82.2334 405.181 83.8346C405.835 88.9222 409.31 94.4268 407.223 99.4333C405.007 103.388 402.613 107.244 400.216 111.095C399.215 112.708 399.23 113.84 400.796 115.231C404.9 118.873 408.804 122.735 412.801 126.495C420.854 134.029 421.522 135.098 422.261 144.178C420.366 147.074 418.693 157.176 413.939 153.464C409.857 147.262 413.68 138.467 410.389 132.272C407.929 131.346 405.199 130.966 403.744 128.221C403.585 130.35 404.091 132.014 406.126 132.32C410.215 132.914 411.072 135.541 410.699 139.109C410.821 143.127 409.111 145.277 405.251 146.001C398.048 148.273 399.44 145.34 395.721 140.374L395.252 140.614C397.099 143.676 397.213 149.653 402.015 148.934C404.157 148.827 406.37 148.908 407.637 150.904C410.374 154.582 409.857 158.851 409.772 163.016C409.765 163.403 408.597 164.211 408.284 164.079C404.697 162.57 400.622 161.787 398.096 158.485C396.053 154.763 387.882 147.13 389.474 143.278C391.17 138.784 392.721 134.235 394.469 129.767C395.144 128.037 394.915 126.875 393.637 125.462C389.271 120.691 389.678 113.73 387.908 107.841C382.56 98.201 367.784 98.6437 377.41 83.3218C365.682 71.7851 367.322 78.9572 372.198 66.6126C370.056 68.3208 368.401 70.1876 366.772 72.0728C363.551 76.596 362.764 72.5303 358.993 73.235C356.92 74.6074 354.981 76.1754 352.961 77.6955C355.214 81.9346 356.621 73.7773 362.687 76.8063C366.458 78.116 369.107 80.7576 371.951 83.2295C373.052 87.856 367.444 90.6636 364.519 93.1207C362.867 93.604 361.301 91.7741 359.739 91.3461C357.87 90.5529 359.155 88.9407 358.793 87.417C354.364 92.8404 358.457 92.2832 362.72 95.7734C365.102 96.7179 367.141 94.5043 369.324 93.5413C370.88 97.6845 370.602 102.193 375.689 103.407C383.693 105.229 383.952 113.578 385.175 120.323C385.012 120.411 384.853 120.5 384.691 120.592C381.001 118.474 377.573 114.283 373.89 112.722C372.014 112.468 369.86 114.014 367.873 114.87C366.724 115.364 365.911 115.331 365.058 114.265C361.745 110.645 358.897 105.69 355.048 102.839C353.182 103.053 351.357 103.613 349.518 104.041C349.533 104.211 349.547 104.381 349.562 104.55C351.025 104.632 352.565 104.731 354.002 104.835C356.329 112.674 346.962 109.428 343.933 113.947C341.473 117.53 340.605 123.894 335.112 123.661C334.037 123.606 332.951 123.82 331.869 123.916C329.316 124.141 326.775 120.588 327.865 118.245C328.511 116.854 329.298 115.526 330.114 113.995C329.191 113.711 328.452 113.482 327.584 113.217C326.59 115.873 323.971 118.36 324.599 121.204C326.202 123.193 327.222 128.804 330.399 127.945C335.699 125.698 343.674 128.779 345.277 121.488C346.293 115.065 357.652 110.69 361.663 116.596C366.214 124.134 367.101 118.696 372.73 118.389C378.714 124.883 390.564 130.302 374.695 133.272C374.732 133.468 374.765 133.66 374.802 133.855C377.089 133.604 382.216 133.032 381.492 136.46C380.521 139.983 379.409 143.466 378.408 146.978C377.979 148.487 376.908 148.605 375.593 148.672C370.961 148.539 376.838 144.495 364.947 139.301C364.977 140.212 365.169 140.928 365.634 141.311C370.104 144.953 369.779 151.697 373.443 155.656C377.935 156.508 381.296 159.522 385.16 161.573C388.994 163.61 391.502 166.462 392.514 170.723C392.736 171.657 393.538 172.771 394.376 173.177C402.414 177.427 399.256 188.797 397.195 195.803C395.839 199.043 400.002 200.242 400.685 202.703C400.807 206.204 403.267 218.803 396.341 214.298C386.867 205.115 387.546 199.799 388.137 187.517C387.797 184.33 384.237 182.651 384.329 179.172C383.561 176.866 378.422 176.309 376.295 175.014C376.121 175.15 375.948 175.283 375.774 175.42C376.243 177.744 378.581 178.305 380.114 179.736C382.777 182.824 384.558 187.296 385.467 191.177C385.156 194.402 384.628 197.619 383.974 200.799C383.029 205.392 382.7 205.462 378.116 204.355C374.016 204.105 375.925 193.243 374.958 189.9C374.887 189.052 374.584 187.812 373.986 187.484C366.886 183.846 364.279 165.875 365.509 158.556C363.957 153.287 355.376 149.672 354.49 143.994C354.974 139.917 355.018 133.59 360.5 133.364C365.173 132.83 365.882 130.804 367.677 127.225C364.707 128.823 363.001 131.745 359.188 131.719C355.336 132.176 355.203 126.476 353.352 124.067C352.813 128 356.171 132.446 352.942 135.571C348.883 139.784 352.994 145.562 346.633 148.908C341.428 151.546 339.002 152.859 337.712 159.223C341.458 156.394 344.834 153.925 348.107 151.332C349.355 150.343 350.353 150.52 351.265 151.56C353.267 153.852 355.033 156.364 357.183 158.5C360.297 161.19 358.535 167.215 354.726 167.62C351.332 168.163 346.91 165.886 344.358 168.797C343.563 169.816 342.385 171.192 341.325 171.236C334.347 171.922 331.414 171.265 326.904 165.219C322.172 160.489 322.763 159.33 323.661 152.937C323.953 151.417 323.443 150.247 322.065 149.553C318.575 147.956 319.479 144.038 318.678 140.987C317.429 137.323 319.642 134.486 320.861 131.21C320.702 131.114 320.543 131.018 320.384 130.922C316.842 134.11 315.645 137.017 310.193 136.032C304.098 135.7 306.88 134.279 304.069 130.679C303.134 131.819 303.068 133.239 302.65 134.656C299.267 132.623 298.177 130.369 298.713 126.941C298.968 123.322 299.492 120.031 303.463 118.799C305.986 119.762 306.185 123.599 309.081 124.241C309.211 124.06 309.344 123.879 309.473 123.695C308.224 120.378 308.453 115.995 303.644 115.851C301.365 115.748 297.431 117.209 296.563 119.374C295.905 122.584 291.417 129.041 293.892 131.608C302.835 140.404 297.331 140.437 309.779 140.337C317.359 140.282 311.837 149.461 318.353 152.036C320.776 153.106 316.75 159.234 316.377 161.297C314.29 165.528 321.692 166.938 322.756 172.025C323.41 173.73 324.137 175.412 324.924 177.061C326.941 181.286 325.726 180.607 330.572 180.031C333.435 179.688 336.298 179.338 339.304 178.976C338.795 187.716 334.587 188.399 328.659 193.273C330.602 194.342 336.992 190.007 339.478 189.281C344.029 184.082 344.646 170.996 354.627 176.058C363.617 178.131 357.186 184.717 362.967 187.893C366.805 189.583 364.504 197.755 365.069 201.751C355.772 199.74 352.155 201.275 345.532 193.612C344.915 195.811 349.034 200.124 350.061 202.393C352.414 204.267 356.148 203.466 358.934 204.418C363.377 205.835 365.246 210.871 369.797 212.387C376.206 215.593 383.235 220.194 385.027 227.403C373.72 226.923 375.393 230.211 369.875 219.725C365.959 214.951 359.366 213.177 354.538 209.428C347.833 204.625 340.804 210.631 334.166 212.542C331.1 214.516 323.871 204.023 321.023 201.932C318.914 197.711 319.723 192.306 319.01 187.665C319.535 184.562 307.382 183.813 304.542 182.289C299.27 179.947 301.727 175.139 292.795 171.823C289.386 170.856 294.479 160.758 294.683 157.843C295.776 155.076 299.463 154.859 301.786 153.453C303.009 155.541 305.768 157.493 303.452 159.862C303.156 160.153 303.223 160.817 303.034 161.769C304.874 160.053 308.25 160.12 306.987 157.334C305.576 155.626 304.652 148.793 301.915 150.122C289.312 154.892 291.801 155.929 287.066 167.698C285.352 172.597 284.554 171.583 289.182 175.294C293.109 178.441 297.575 181.123 299.093 186.447C299.459 187.724 300.53 188.015 301.834 188.012C315.006 186.753 318.153 197.77 310.921 207.17C310.515 207.669 309.584 208.041 308.934 207.99C306.093 208.366 302.03 205.514 300.05 208.244C297.752 211.513 295.41 214.752 293.039 217.966C291.96 219.087 284.868 221.068 283.645 219.585C282.172 217.91 278.958 216.335 279.641 213.741C281.012 209.985 284.303 211.461 287.465 211.812C288.237 208.75 291.502 205.167 287.502 203.046C289.297 213.251 282.944 207.613 279.841 210.044C277.802 211.797 276.199 214.402 273.879 215.39C270.883 216.667 270.189 218.486 270.347 221.245C269.878 223.677 271.507 225.983 274.322 225.396C274.378 224.953 273.997 224.706 273.705 224.44C272.364 223.359 271.777 220.618 272.689 219.674C273.65 218.678 277.288 218.508 278.23 219.478C279.553 220.836 280.845 222.223 282.083 223.662C284.506 226.481 289.423 223.038 293.087 222.917C292.042 227.927 295.761 229.938 298.347 232.649C297.265 228.377 293.733 225.363 296.888 220.906C298.048 218.921 299.008 216.818 300.149 214.822C302.152 211.321 302.207 211.247 306.204 212.336C316.528 215.534 313.222 209.122 325.848 217.224C327.913 217.383 329.911 218.39 331.673 219.515C333.922 219.711 335.987 221.209 338.126 219.142C343.231 215.228 348.099 215.18 352.24 218.685C350.833 221.201 347.649 223.227 347.697 226.241C350.903 225.352 353.345 222.721 356.337 221.304C362.916 221.279 364.397 230.399 367.758 234.756C371.389 241.201 380.609 232.856 387.251 241.493C388.99 243.134 389.799 245.197 390.269 247.41C390.391 249.584 390.656 251.727 390.945 253.882C391.199 255.911 391.115 257.874 390.867 259.888C390.634 261.581 390.402 263.275 390.169 264.968C390.025 266.031 389.855 267.093 389.7 268.16C389.43 269.097 389.197 270.037 389.027 270.982C388.839 272.033 388.662 273.118 388.654 274.192C388.647 275.262 388.824 276.365 388.994 277.412C389.02 277.571 389.05 277.73 389.079 277.888C390.125 284.12 393.641 289.23 387.003 291.395C385.023 292.122 384.403 293.587 384.565 295.557C384.828 298.73 385.053 301.903 385.297 305.075C384.599 315.815 375.947 311.203 373.473 317.586C371.618 321.866 368.8 325.511 363.798 326.998C363.728 326.846 363.654 326.699 363.584 326.551C355.676 333.163 348.384 333.694 340.789 334.292C338.551 335.775 336.309 337.25 334.052 338.704L328.747 309.115C327.329 301.213 320.791 295.771 314.146 296.959L309.957 297.708C303.308 298.896 299.067 306.267 300.486 314.17L306.03 345.083C281.078 349.4 256.086 353.454 231.045 357.232L225.585 326.787C224.167 318.885 217.629 313.443 210.984 314.631L206.795 315.38C200.146 316.568 195.905 323.939 197.324 331.842L202.621 361.39C189.603 363.238 176.575 365.006 163.532 366.692L161.386 352.986C160.507 347.382 156.089 343.419 151.509 344.135L148.624 344.585C144.047 345.301 141.048 350.422 141.927 356.026L143.984 369.16C138.011 369.894 132.038 370.617 126.062 371.315C100.999 374.24 75.877 376.845 50.7181 379.106L45.1404 358.638L55.1027 355.93L53.699 350.783L43.7367 353.491L41.1658 344.054L35.6693 345.548L38.2402 354.985L28.2779 357.693L29.6816 362.84L39.6439 360.132L44.9557 379.623C-1.3653 383.692 -47.823 386.585 -94.3065 388.164L-92.4633 365.05C-91.8242 357.048 -96.7666 350.126 -103.497 349.591L-107.737 349.256C-114.471 348.721 -120.444 354.775 -121.083 362.777L-123.17 388.979C-139.069 389.33 -154.967 389.522 -170.865 389.551L-173.795 370.864L-163.592 369.267L-164.42 363.998L-174.622 365.596L-176.137 355.934L-181.766 356.815L-180.251 366.478L-190.454 368.075L-189.626 373.344L-179.424 371.746L-176.632 389.559C-200.49 389.544 -224.338 389.16 -248.167 388.385L-238.951 354.635L-223.082 358.959L-220.843 350.761L-236.712 346.437L-232.608 331.41L-241.363 329.027L-245.467 344.054L-261.335 339.73L-263.574 347.928L-247.705 352.251L-257.486 388.068C-315.654 385.928 -373.677 381.442 -431.356 374.332L-437.614 339.427C-439.276 330.163 -446.941 323.784 -454.731 325.179L-459.64 326.057C-467.434 327.452 -472.402 336.092 -470.744 345.356L-466.381 369.68C-489.287 366.419 -512.137 362.737 -534.906 358.608V654.718H573.251V289.79C557.833 293.447 542.396 297.029 526.949 300.545L526.956 300.508Z" fill="#1A0D39"/>
</g>
<defs>
<clipPath id="clip0_54806_103">
<rect width="412" height="618" fill="white"/>
</clipPath>
</defs>
</svg>
