<svg width="214" height="241" viewBox="0 0 214 241" fill="none" xmlns="http://www.w3.org/2000/svg">
<path d="M0 192.866C17.9674 164.987 25.594 131.2 24.907 98.0306C24.2199 64.8786 15.5626 32.2419 3.05755 1.52902C31.7263 24.5808 70.4953 32.1904 107.169 29.2531C143.842 26.2986 179.004 13.742 213.135 0.000225913" stroke="#1A0D39" stroke-width="1.23291" stroke-linecap="round" stroke-linejoin="round"/>
<path d="M60.6013 240C70.3751 203.911 70.753 148.823 60.6871 113.078C49.3158 72.6253 26.6076 36.3298 3.05762 1.52882C51.3428 61.2024 123.676 91.7435 198.448 102.376" stroke="#1A0D39" stroke-width="1.23291" stroke-linecap="round" stroke-linejoin="round"/>
<path d="M145.182 206.35C103.476 134.497 55.3794 66.0635 3.05762 1.52868" stroke="#1A0D39" stroke-width="1.23291" stroke-linecap="round" stroke-linejoin="round"/>
<path d="M16.1123 44.0768C20.5612 42.1014 25.972 42.4964 30.0946 45.073C31.3485 43.6816 33.2723 42.9087 35.1447 43.0633C33.4269 40.7615 34.1656 37.0513 36.6219 35.574C32.9975 30.7988 32.465 23.8592 35.3508 18.6029" stroke="#1A0D39" stroke-width="1.23291" stroke-linecap="round" stroke-linejoin="round"/>
<path d="M23.5499 75.4767C30.8159 72.6596 39.2842 73.1234 46.2067 76.7135C46.1208 72.11 49.2986 67.6267 53.6616 66.1838C54.1254 61.0994 58.1964 56.5646 63.1949 55.5512C60.1374 45.7601 64.3973 34.1655 73.0546 28.6688" stroke="#1A0D39" stroke-width="1.23291" stroke-linecap="round" stroke-linejoin="round"/>
<path d="M24.5635 97.9102C35.4195 94.784 47.6325 96.7594 56.9425 103.149C57.8873 96.4674 63.5042 90.6959 70.1518 89.5793C69.9285 85.0102 71.4916 80.3895 74.4117 76.8682C77.3319 73.3468 81.5918 70.9764 86.1266 70.3408C83.1206 63.5387 82.8801 55.4654 84.6837 48.251C86.4873 41.0366 90.7644 34.4577 96.6219 29.8713" stroke="#1A0D39" stroke-width="1.23291" stroke-linecap="round" stroke-linejoin="round"/>
<path d="M22.6396 135.889C38.4599 132.746 55.6199 137.194 67.9188 147.638C71.7493 135.545 84.615 127.008 97.2403 128.193C97.704 110.724 112.442 94.0453 129.19 89.0811C120.859 67.8844 123.518 41.6293 138.702 24.6582" stroke="#1A0D39" stroke-width="1.23291" stroke-linecap="round" stroke-linejoin="round"/>
<path d="M17.1085 157.842C38.0819 154.166 60.7558 167.066 68.3138 186.974C75.511 168.268 94.5777 154.784 114.606 154.234C120.618 130.186 136.198 108.68 157.154 95.4712C152.413 67.8674 156.846 40.6771 170.142 16.0279" stroke="#1A0D39" stroke-width="1.23291" stroke-linecap="round" stroke-linejoin="round"/>
<path d="M2.30176 189.173C24.8383 195.082 48.1477 210.747 62.8171 228.852C79.1526 204.495 107.667 188.778 136.988 187.953C143.292 153.616 163.269 121.975 191.56 101.535C181.958 69.0353 186.905 32.5164 204.804 3.74462" stroke="#1A0D39" stroke-width="1.23291" stroke-linecap="round" stroke-linejoin="round"/>
<path d="M148.686 159.027C151.039 159.422 153.581 158.289 154.852 156.279C155.832 154.733 156.072 152.843 156.261 151.005C156.45 149.133 156.553 147.038 155.351 145.612C154.492 144.598 153.118 144.117 151.795 144.152C150.472 144.186 149.184 144.65 148.016 145.268C146.418 146.11 144.907 147.261 144.065 148.858C142.073 152.603 144.409 158.289 148.703 159.01L148.686 159.027Z" fill="#1A0D39"/>
<path d="M139.582 154.286C141.42 153.702 143.309 153.273 145.216 153.015C143.619 151.675 142.416 149.889 141.746 147.914" stroke="#1A0D39" stroke-width="1.23291" stroke-linecap="round" stroke-linejoin="round"/>
<path d="M143.327 145.268C144.649 146.264 146.178 146.986 147.793 147.381C147.501 145.577 147.432 143.739 147.586 141.919" stroke="#1A0D39" stroke-width="1.23291" stroke-linecap="round" stroke-linejoin="round"/>
<path d="M154.406 160.607C153.186 159.027 152.276 157.206 151.778 155.265C153.839 156.433 156.106 157.24 158.442 157.653" stroke="#1A0D39" stroke-width="1.23291" stroke-linecap="round" stroke-linejoin="round"/>
<path d="M159.559 151.813C157.67 151.366 155.866 150.559 154.268 149.476C156.261 149.476 158.236 148.875 159.885 147.759" stroke="#1A0D39" stroke-width="1.23291" stroke-linecap="round" stroke-linejoin="round"/>
<path d="M80.7328 138.328C82.7425 138.93 85.0958 138.019 86.2295 136.25C87.3632 134.481 87.2258 131.99 85.9203 130.358C84.6148 128.709 82.2615 128.005 80.2518 128.623C75.0128 130.238 75.8544 136.886 80.7328 138.328Z" fill="#1A0D39"/>
<path d="M78.9464 141.111C79.4102 139.72 79.7366 138.26 79.874 136.8C80.8187 137.83 81.6948 138.93 82.4677 140.081" stroke="#1A0D39" stroke-width="1.23291" stroke-linecap="round" stroke-linejoin="round"/>
<path d="M85.7143 139.411C85.1302 138.174 84.5462 136.92 83.9794 135.683C85.2677 136.113 86.659 136.319 88.016 136.267" stroke="#1A0D39" stroke-width="1.23291" stroke-linecap="round" stroke-linejoin="round"/>
<path d="M75.4423 130.53C76.6275 130.942 77.8127 131.372 79.0151 131.784C78.7403 130.616 78.3108 129.499 77.744 128.451" stroke="#1A0D39" stroke-width="1.23291" stroke-linecap="round" stroke-linejoin="round"/>
<path d="M80.8876 125.892C81.5918 127.146 82.09 128.503 82.3992 129.912C83.0175 128.829 83.4298 127.627 83.5672 126.373" stroke="#1A0D39" stroke-width="1.23291" stroke-linecap="round" stroke-linejoin="round"/>
<path d="M51.8237 29.8203C53.696 30.662 56.0149 30.576 57.6811 29.408C59.3644 28.2399 60.2405 25.9382 59.5534 23.9972C59.1411 22.812 58.1964 21.8501 57.1314 21.1973C55.3622 20.098 53.0776 19.7545 51.1709 20.579C46.4472 22.6231 47.8042 28.0338 51.8237 29.8374L51.8237 29.8203Z" fill="#1A0D39"/>
<path d="M48.3882 30.8162C49.2127 29.4764 50.02 28.1367 50.8445 26.814C49.5562 27.2263 48.2679 27.6556 46.9968 28.1194" stroke="#1A0D39" stroke-width="1.23291" stroke-linecap="round" stroke-linejoin="round"/>
<path d="M53.3352 31.8984C53.5242 30.8162 53.7131 29.734 53.9192 28.6519C54.5204 29.9745 55.3965 31.177 56.4958 32.1389" stroke="#1A0D39" stroke-width="1.23291" stroke-linecap="round" stroke-linejoin="round"/>
<path d="M60.3779 21.7812C58.7461 22.1247 57.5093 23.4474 55.9634 24.1002C56.513 22.5198 57.3719 21.0598 58.4541 19.7887" stroke="#1A0D39" stroke-width="1.23291" stroke-linecap="round" stroke-linejoin="round"/>
<path d="M51.3254 18.8956C51.669 20.3556 52.0297 21.8158 52.3733 23.2758C53.4382 21.7299 53.4726 19.6514 54.486 18.0539" stroke="#1A0D39" stroke-width="1.23291" stroke-linecap="round" stroke-linejoin="round"/>
</svg>
