<svg fill="none" height="128" viewBox="0 0 128 128" width="128" xmlns="http://www.w3.org/2000/svg">
    <path d="M90.1409 108.665L38.0796 78.7804L32.3394 64.6119L95.0918 26.8162L105 36.6759L105 100.127C105 107.716 96.7465 112.458 90.1409 108.665Z" fill="#FCD53F"/>
    <path d="M105 38.385C76.4574 39.5517 51.809 55.7349 38.8225 79.2044L27.8573 72.9106C23.0617 70.1565 21.4302 63.9842 24.7263 59.5539C46.8185 29.8924 78.7793 20.8576 94.8968 18.1264C100.402 17.1931 105 21.5511 105 27.112V38.385Z" fill="#F3AD61"/>
    <path d="M98.3949 59.682C98.3949 62.7328 97.177 65.6587 95.0091 67.8159C92.8413 69.9732 89.901 71.1851 86.8352 71.1851C83.7694 71.1851 80.8291 69.9732 78.6613 67.8159C76.4934 65.6587 75.2755 62.7328 75.2755 59.682C75.2755 56.6312 76.4934 53.7054 78.6613 51.5481C80.8291 49.3909 83.7694 48.179 86.8352 48.179C89.901 48.179 92.8413 49.3909 95.0091 51.5481C97.177 53.7054 98.3949 56.6312 98.3949 59.682ZM71.9728 79.4016C71.9728 81.5807 71.1029 83.6706 69.5544 85.2115C68.0059 86.7524 65.9057 87.618 63.7159 87.618C61.526 87.618 59.4258 86.7524 57.8774 85.2115C56.3289 83.6706 55.459 81.5807 55.459 79.4016C55.459 77.2224 56.3289 75.1325 57.8774 73.5916C59.4258 72.0507 61.526 71.1851 63.7159 71.1851C65.9057 71.1851 68.0059 72.0507 69.5544 73.5916C71.1029 75.1325 71.9728 77.2224 71.9728 79.4016ZM88.4866 94.1912C90.2385 94.1912 91.9186 93.4987 93.1574 92.266C94.3962 91.0333 95.0921 89.3614 95.0921 87.618C95.0921 85.8747 94.3962 84.2028 93.1574 82.9701C91.9186 81.7374 90.2385 81.0449 88.4866 81.0449C86.7347 81.0449 85.0545 81.7374 83.8158 82.9701C82.577 84.2028 81.8811 85.8747 81.8811 87.618C81.8811 89.3614 82.577 91.0333 83.8158 92.266C85.0545 93.4987 86.7347 94.1912 88.4866 94.1912Z" fill="#F8312F"/>
</svg>
